<mxfile host="app.diagrams.net" modified="2023-04-29T13:45:36.732Z" agent="Mozilla/5.0 (Windows NT 10.0; Win64; x64) AppleWebKit/537.36 (KHTML, like Gecko) Chrome/112.0.0.0 Safari/537.36" etag="ExLIURuY2IGt-0RfzQxr" version="21.2.3" type="github">
  <diagram name="第 1 页" id="d-EMLWtRMajU_juHqhzB">
    <mxGraphModel dx="1034" dy="484" grid="1" gridSize="10" guides="1" tooltips="1" connect="1" arrows="1" fold="1" page="1" pageScale="1" pageWidth="827" pageHeight="1169" math="0" shadow="0">
      <root>
        <mxCell id="0" />
        <mxCell id="1" parent="0" />
        <mxCell id="KZFZthVtkt_ClCDCmQ3N-4" style="edgeStyle=orthogonalEdgeStyle;rounded=0;orthogonalLoop=1;jettySize=auto;html=1;" edge="1" parent="1" source="KZFZthVtkt_ClCDCmQ3N-1">
          <mxGeometry relative="1" as="geometry">
            <mxPoint x="240" y="190" as="targetPoint" />
          </mxGeometry>
        </mxCell>
        <mxCell id="KZFZthVtkt_ClCDCmQ3N-1" value="启动时，会启动lazy=false 的 CanalInstance" style="rounded=0;whiteSpace=wrap;html=1;" vertex="1" parent="1">
          <mxGeometry x="50" y="160" width="120" height="60" as="geometry" />
        </mxCell>
        <mxCell id="KZFZthVtkt_ClCDCmQ3N-2" value="CanalController#start()" style="text;html=1;strokeColor=none;fillColor=none;align=center;verticalAlign=middle;whiteSpace=wrap;rounded=0;" vertex="1" parent="1">
          <mxGeometry x="80" y="130" width="60" height="30" as="geometry" />
        </mxCell>
        <mxCell id="KZFZthVtkt_ClCDCmQ3N-8" style="edgeStyle=orthogonalEdgeStyle;rounded=0;orthogonalLoop=1;jettySize=auto;html=1;" edge="1" parent="1" source="KZFZthVtkt_ClCDCmQ3N-5">
          <mxGeometry relative="1" as="geometry">
            <mxPoint x="590" y="190" as="targetPoint" />
          </mxGeometry>
        </mxCell>
        <mxCell id="KZFZthVtkt_ClCDCmQ3N-5" value="&lt;pre style=&quot;background-color:#ffffff;color:#080808;font-family:&#39;JetBrains Mono&#39;,monospace;font-size:12.0pt;&quot;&gt;AbstractCanalInstance#start&lt;/pre&gt;" style="text;html=1;strokeColor=none;fillColor=none;align=center;verticalAlign=middle;whiteSpace=wrap;rounded=0;" vertex="1" parent="1">
          <mxGeometry x="250" y="172.5" width="220" height="35" as="geometry" />
        </mxCell>
        <mxCell id="KZFZthVtkt_ClCDCmQ3N-12" value="" style="edgeStyle=orthogonalEdgeStyle;rounded=0;orthogonalLoop=1;jettySize=auto;html=1;" edge="1" parent="1" source="KZFZthVtkt_ClCDCmQ3N-9" target="KZFZthVtkt_ClCDCmQ3N-11">
          <mxGeometry relative="1" as="geometry" />
        </mxCell>
        <mxCell id="KZFZthVtkt_ClCDCmQ3N-9" value="&lt;pre style=&quot;background-color:#ffffff;color:#080808;font-family:&#39;JetBrains Mono&#39;,monospace;font-size:12.0pt;&quot;&gt;CanalMetaManager#start()&lt;/pre&gt;" style="text;html=1;strokeColor=none;fillColor=none;align=center;verticalAlign=middle;whiteSpace=wrap;rounded=0;" vertex="1" parent="1">
          <mxGeometry x="610" y="172.5" width="200" height="27.5" as="geometry" />
        </mxCell>
        <mxCell id="KZFZthVtkt_ClCDCmQ3N-17" value="" style="edgeStyle=orthogonalEdgeStyle;rounded=0;orthogonalLoop=1;jettySize=auto;html=1;" edge="1" parent="1" source="KZFZthVtkt_ClCDCmQ3N-11" target="KZFZthVtkt_ClCDCmQ3N-16">
          <mxGeometry relative="1" as="geometry" />
        </mxCell>
        <mxCell id="KZFZthVtkt_ClCDCmQ3N-11" value="&lt;pre style=&quot;background-color:#ffffff;color:#080808;font-family:&#39;JetBrains Mono&#39;,monospace;font-size:12.0pt;&quot;&gt;MemoryEventStoreWithBuffer#start()&lt;/pre&gt;" style="text;html=1;strokeColor=none;fillColor=none;align=center;verticalAlign=middle;whiteSpace=wrap;rounded=0;" vertex="1" parent="1">
          <mxGeometry x="610" y="280" width="200" height="27.5" as="geometry" />
        </mxCell>
        <mxCell id="KZFZthVtkt_ClCDCmQ3N-13" value="（先不用管，这个对象保存了 client 消费的位置）" style="text;strokeColor=none;fillColor=none;align=left;verticalAlign=middle;spacingLeft=4;spacingRight=4;overflow=hidden;points=[[0,0.5],[1,0.5]];portConstraint=eastwest;rotatable=0;whiteSpace=wrap;html=1;" vertex="1" parent="1">
          <mxGeometry x="720" y="130" width="280" height="40" as="geometry" />
        </mxCell>
        <mxCell id="KZFZthVtkt_ClCDCmQ3N-14" value="（目前，canal 只有这个 EventStore 的实现）" style="text;html=1;strokeColor=none;fillColor=none;align=center;verticalAlign=middle;whiteSpace=wrap;rounded=0;" vertex="1" parent="1">
          <mxGeometry x="860" y="258" width="270" height="22" as="geometry" />
        </mxCell>
        <mxCell id="KZFZthVtkt_ClCDCmQ3N-15" value="启动时做了什么？&lt;br&gt;1. 生成一个数组。该数据用于保存解析的 Event）" style="text;html=1;strokeColor=none;fillColor=none;align=left;verticalAlign=middle;whiteSpace=wrap;rounded=0;" vertex="1" parent="1">
          <mxGeometry x="880" y="270" width="230" height="90" as="geometry" />
        </mxCell>
        <mxCell id="KZFZthVtkt_ClCDCmQ3N-20" style="edgeStyle=orthogonalEdgeStyle;rounded=0;orthogonalLoop=1;jettySize=auto;html=1;" edge="1" parent="1" source="KZFZthVtkt_ClCDCmQ3N-16">
          <mxGeometry relative="1" as="geometry">
            <mxPoint x="710" y="490" as="targetPoint" />
          </mxGeometry>
        </mxCell>
        <mxCell id="KZFZthVtkt_ClCDCmQ3N-16" value="&lt;pre style=&quot;background-color:#ffffff;color:#080808;font-family:&#39;JetBrains Mono&#39;,monospace;font-size:12.0pt;&quot;&gt;EntryEventSink#start()&lt;/pre&gt;" style="text;html=1;strokeColor=none;fillColor=none;align=center;verticalAlign=middle;whiteSpace=wrap;rounded=0;" vertex="1" parent="1">
          <mxGeometry x="610" y="387.5" width="200" height="27.5" as="geometry" />
        </mxCell>
        <mxCell id="KZFZthVtkt_ClCDCmQ3N-18" value="（好像也没做啥东西，只是设置了一下标记位）" style="text;html=1;strokeColor=none;fillColor=none;align=center;verticalAlign=middle;whiteSpace=wrap;rounded=0;" vertex="1" parent="1">
          <mxGeometry x="830" y="393.75" width="280" height="15" as="geometry" />
        </mxCell>
        <mxCell id="KZFZthVtkt_ClCDCmQ3N-22" value="1. EventParser 启动之前" style="text;html=1;strokeColor=none;fillColor=none;align=left;verticalAlign=middle;whiteSpace=wrap;rounded=0;fontSize=13;" vertex="1" parent="1">
          <mxGeometry x="640" y="500" width="180" height="20" as="geometry" />
        </mxCell>
        <mxCell id="KZFZthVtkt_ClCDCmQ3N-23" value="2. AbstractEventParser#start()" style="text;html=1;strokeColor=none;fillColor=none;align=left;verticalAlign=middle;whiteSpace=wrap;rounded=0;fontSize=13;" vertex="1" parent="1">
          <mxGeometry x="640" y="540" width="190" height="20" as="geometry" />
        </mxCell>
        <mxCell id="KZFZthVtkt_ClCDCmQ3N-24" value="3. EventParser 启动之后" style="text;html=1;strokeColor=none;fillColor=none;align=left;verticalAlign=middle;whiteSpace=wrap;rounded=0;fontSize=13;" vertex="1" parent="1">
          <mxGeometry x="640" y="585" width="180" height="25" as="geometry" />
        </mxCell>
        <mxCell id="KZFZthVtkt_ClCDCmQ3N-25" value="" style="shape=curlyBracket;whiteSpace=wrap;html=1;rounded=1;labelPosition=left;verticalLabelPosition=middle;align=right;verticalAlign=middle;" vertex="1" parent="1">
          <mxGeometry x="573" y="499" width="20" height="120" as="geometry" />
        </mxCell>
        <mxCell id="KZFZthVtkt_ClCDCmQ3N-27" value="" style="shape=image;verticalLabelPosition=bottom;labelBackgroundColor=default;verticalAlign=top;aspect=fixed;imageAspect=0;image=data:image/png,iVBORw0KGgoAAAANSUhEUgAABmMAAALzCAYAAADtd3O8AAAgAElEQVR4nOzdeXxU1f3/8Xf2HcKSRNZhC6uAQFgFJoB1Q7tgBW21dvnW1uKCS5dfv20NKtalWqutta79utUqolaK4AIzIEoQSFjCvoUAEhJIwmSfzMzvj2QgCcnMkJmbyfJ6Ph4+vMzcc+fMzZm7fc7nnBCXy+USAAAAAAAAAAAADBEa7AoAAAAAAAAAAAB0ZARjAAAAAAAAAAAADBQe7AoAAABAKi4u1tatW4NdDQBAO5OYmKixY8cGuxoAAADwgswYAAAAAAAAAAAAA5EZAwAA0IYkJiYqKmJ/sKsBAGgH8gt6BrsKAAAA8BGZMQAAAAAAAAAAAAYiGAMAAAAAAAAAAGAggjEAAAAAAAAAAAAGIhgDAAAAAAAAAABgIIIxAAAAAAAAAAAABiIYAwAAAAAAAAAAYCCCMQAAAAAAAAAAAAYiGAMAAAAAAAAAAGAggjEAAAAAAAAAAAAGIhgDAAAAAAAAAABgIIIxAAAAAAAAAAAABiIYAwAAAAAAAAAAYCCCMQAAAAAAAAAAAAYiGAMAAAAAAAAAAGAggjEAAAAAAAAAAAAGIhgDAAAAAAAAAABgIIIxAAAAAAAAAAAABgoPdgUAAAAQOLaaUp20F6rIXqJKZ5WqnNWSpKjQSEWHRqlbRFclR/RUQnh8kGsKAAAAAEDnQTAGAACgA8ivLtC+skMqd1Y0+X65o0LljgqdthfrgHIVGxqj1LiBSolMauWaBknVKW3676d6f/V2bdt7UgUlVXJFx6p77/4aO2mCvr3ArMm9o4JdyyCp1Hu3/48e+LL5NS6592m98r3uF7DNAr1y0916eteF1STyqruV+dCECyvUEeVt1ksrcmWXFDNyum6Zkex72VKLfmZ+URubez80QnFdEpQycJDSpk/T9d+dqCHxIQGoNAAAAABPCMYAAAC0YxWOSm0v26Vi+5kLKlfurNBW204lRnTR6LgRigmLNqiGwVd1cK0yfvlPrTxc3fCNUpu+3pujr/fmaOXbq3T5L+/S4nn91XH3BNqNvCy99LxFFZK6Xjf0woIx3jjtKis+rYNZp3Uwa5PeeTVVP1pyp26f2k2EZAAAAADjEIwBAABop4rsxcq27ZTdZW/xNortZ7ShZIsuSRipbhGJAaxdG3F6k/6w8AV9fNJV+++Irho2aaRG9olTWFmR9mblaNvxSqk6Xx8veVTOuIf0+BXdglvnVheuIbOu1PcHNny1bHem3t9SFIDt99SU+Wka7MOdR9iIAAYdIHUdrGvmpqpr/dcc1SrJP6qsr/bpWJlLrpJ9evnux+R87g+665KYYNUUAAAA6PAIxgAAALRDRfZibbZtk9Pl8ntbdpddm23bNCFhTAcLyDi06YXXzgZiooZepkefvEnmXvUugR02bXnxKS16fo9sKtGnTyzVBvNPNaVTpceEa/R1N2l0o1fz3zwYoGBMb111x036ZmwANoUL03OsfnzvPA1s4i1nyX699ts/66kNJZI9T/+3ZLmu+vf1Ghra6rUEAAAAOgUutQEAANqZCkelsm07AxKIcXO6XMq27VSFozJg2ww65259tOpU7XLoAP38kVsaBmIkKSxB4392p+6aElH771OZ+u9GR+vWEwiC0K5DdMvjP9e3etb+23Vwjd7PDtwxBQAAAEBDZMYAAAC0M9vLdvk1NFlz7C67tpft0qQu43wuk1d5XPvLD6nEUSq5nEoIT5Apuo8GxwxQSEiQZ6AoyNPekrrlIRM1x9RcfbpqzqyhemhDjqRK7dlzQprZp/ntlh6X5T+rtcKySzsOnNQpW7VCY2LVvXd/jZ44Xt+cn65pfaM8lK83wfrgeVr29jz1OrJZ/3z+I328MVfHSmoUmdBdA0aP1pUL5ur6KUmK9OX7+luvtsi5S0suX6KlRZKiJujRz+7W5R5H0irSaz+8Q09ul6RBunf5A7qpVzOr2ouVtfxjvfvpVmXvKVChrVqhsQlKGTBIE6ZP1YL5k5Wa4KENB+rvmP265vxkpU438zEl7z6ice82/V7kVXcr86EJzdfRm9jR+u5VSfrgtQJJZ7Ql+4Q0vpkdFoD2dfy1+zX3qQOSpBkZL+rpuQ7tWvGhXli6RTsPF+q0PVzd+5g0fsZ03XTzDI1M9NZ30KnCbZ/rrXe/1BfZR3S0sFSllQ65wiIU36W7TCNHaNa3r9ANs/spzpf94W+bMOQ7AgAAoKMgGAMAANCO5FcXqNh+xrDtF9vPKL+6QCmRSV7XPVJ5TJtKtjZ4rcR+RtvsZ+RyuZQaN8ioavrmTKnO7qmkRHn6Rolp39Bttw6TU1LCxc2NUeZS0eb39KvffKBNpxtlz5TadHxvjo7vzdGqd1Zpzn2LtOS6/vIl9OE8ulqLbn5ZmaXnXqsuyteOtfnasXa9Vvxgkf5+1yh1aXYLxtSrTQgdptnp8Vr6XqlUtUNrNlTr8lkeQlNFW2TNqVsenqZZzcQVao5t1MP3/kPv7atq+MaZIh3etlmHt23Wsn99qp8+cpduS0vwqar+/x2Do1+/FEkFkqSiIpukxjvNqPZVoa/+/JgWvpmnc6HlauUf2KWPDuzSyg++0N3PLNLNI5qLvlUo+x+P644X9qq0cUKPw67SonzlrM9Xzvp1WjrrFv3t4dka5KHpGNEm/P+OAAAA6EgIxgAAALQj+8oO+bTeh09mNvn6tfdM9ukzfAnGHKw4IkkakzBSg2MGSJIOVBzWNttOHag8EvxgjMuls89oQ0PksT/7gDTd+rM0j5ur2bdct9+5TDvrRnILS+ij8Wkm9e0RLfvpUzqUs0s5+dVS9Ul99sdHFdX9US2ZFe+lkqX64JEPlVkeq0GTR2tM/wSFnjmprRt26ECJU1KFdr76F2WkPqYnr256Ph9j6tVWhGrirAmKf8+qUlVpvWWHamaNb/YmxrYuS9nO2uWhsyeqyfwmW44eW/hXvZdXu2JIfIrGjjWpf0qcak4X6EDOHu0psMtVtFvPL/qTYl75vX6Y6u22yY+/Y/dBuvKaGbLVf61gn1ZknpBDUqRptK4Y3fTfPnxsDy/18q6y6lzwISoi4rz3jWpfrl0f6oF/58nZtY+mTk5Vv8QQnTl6QJmZR1TkkFxFOXpy0cvq+/ZCzep6fvmKDW/ql8/vVW3sK0TxpmGaNKqXkhOjFFpTocLc/friq2MqdTp0Ys0rWvRMHy29d1jT2UmGtAn/vyMAAAA6FoIxAAAA7YStplTlzgqf1h06ta+O7zml0tO168d3j1HvYb49uC13VshWU6qEcM8PVEtryiRJppi+co9INjCmv7bZdqrC4Vs9249yrXz2/boH0hEaOn+h/nJPmi6q/+y6pkRZbzyne57ermJXiVb8eblunnWDhnvabMV2rTs4Qve9doe+P7xe7/iyXL3x/x7Tn9aXSCrXmudXac/VCzSsterVhoRPStPMeKtWlEq2dVu02TFek8OaWrNKn6/NUW3uRh/NaTItxqXdr76qd+oeuien36yn/nC5RnStF6qrKtDn/3hWv/m/fSqrOKDnnrBo7nOXecys8uvv2H+afrl4WsPtffGiPs08oQpJMWlz9cBvL/b06X6o0ObNR+qWQ9S3X+NvaVz72rpivWLTf6S3HpyjIbH1anTQot8ufEmWky6p8Es988a1Sv9F/0bBVLvWvbdehZKkMA268Vf6572j1HgEMVvO+7r950u1rdylvKXL9cmtwzT3vKQWg9qE398RAAAAHQ0D1AIAALQTJ+2FPq87bGofzfrhmLP/nvXDMRo21cM8KC34rJq6eWsiQs717wkLqb28dLk62kTghSqLH6M5sydqzhXX63eNH0hLUnhXjbvl57p1fN0j1WNZWuctkel4sYbec3vDB/iSFGfS9x++RXPcD47zturLo61Yr4A6ro+eeV1/esLzfy9/XtR08YiLNefSuv1TskWW5iaZr94ha2bdYFAD0jS7ycSsA1q+/FjtYsIk/WrxFQ0fuktSVJKm33m7fja69vWqrz7XJwXevqK/f8fgsG1equfX1mXGhA3W9GmNA7DGtS9bxAT94aGGQQpJihmUriW/nS53LtCh1Rt1/uYKdTi3um55oOb94PxAjCQljPqmFv/xh/r1r36gXy+aqN7V569jWJvw+zsCAACgoyEzBgAAoJ0ospd4XymQn+VlGoOOFm7xrL8WPHiXFnhdr6uGpnaRtpRIKtTxryUN9LB69FhdmR7b9Hvx43RZWpg+W+OQVKhjxyT1baV6BVShNry9Uhu8rDUgZqZ+PL1bE+9EaNrsMYpelalKndEayz79esLQ89ZyfLVF68trl/ulT9SQpj7k1EHlnKxbHjFKk5pN/uqhKVN6S9uPSTqsXbskj2kQfv8dW5HTrtKTx7Tp4//qmX98qdy6Yd2SvzlP81Iar2xc++o2+1JNa+YYEzt9mswJ6/SBTdLhPO13SIOazIaSpBCFNtvFMFQDpl+mAZ4qYlSbUCC/IwAAADoCgjEAAADtRKWjyvtKrfhZjZNfluWv8PjvxualXH3B9WoPQsPcT4btqm6yJ349Kcnq2+wVeYSSUxIkFUuqUoWfI79dUL3amOhpEzU1KlNrqqR862btvndoo2GwXNq8Lrtu/pAemj2nmcfvRaUqrluMSe4uT9Owd+kSV7dUo5KSSknRza/cin/HC3JgmeZNWOZ1tfiLr9OT943x9A29utD21adPcvNvhvRU74sk2SS5ylRik9Rg2pxkDRkUJe2rkrRf/3p6vab95lKZmomHeWRUm5C/3xEAAAAdDcEYAACAdqLa1XpP0H35rJCQ8wMyHV1FXraWvrlGn2Tu1+H8UpVWOvzLEAoP93hBHhLqHi7J5fFzAl6vgBqjxet+pW+25EG5W+xYzZ4coTVr7dKxLVqz70YNT62/wkFZ19ZljiVP1JwRzWzH6aibU0aqWP6Exi337eMdNU7PKwTo79jqonto0rwb9b+3T1H/qOZXM6J9hYd7SgNJ0IjZM3TtMEnqJdN5q4Zp+vxZ6v3xSh13uZT3379r3uq3lDomVaOG9NXgwX01eKhJI4ekKKHxsGqNGdUm5O93BAAAQEdDMAYAAAAt8p3kq4JdhVbkUv6al3Tb7yw6VBnsutTXVusVaDEyzxqlsLXZcuhrWa3HdVtq73Nv792idfm1i8mz03QxM6HX6jpY18xNVdd6L7lCwhXXpYtSBg5S2sRUmbp4igIEq33Fa8atP9MMD2tEXrJAz/y+RHc/9qWOVErOiiLtydyoPZkbz64TEttDY2bO1E0/uVqXDfIy7mKr8/4dAQAA0LEQjAEAAGgnIkMiVeNqnTGOIkMiW+Vz2o0jq3Tf/1p0qG70tsjkQZo6zqTePaLUeLqKk5ss+mRvKz25bqv1MkCCOU0TwrK10SHtsWzR8f/pLXc45uDaLOXVrqVZs4fJl1hM+MAJWjDVy6QfdQYMaae3TT3H6sf3zmv59EBtun1FaNC3Furd6Vfpkw/Xy5K5Wzt2H9fXZ+xns3Zc5ae0deV72rr6C3374d/p/llNzUl0TqdoEwAAAAgariABAADaieiwKJU7WycYEx3mYcyiTselr/71oXbUPZDunv4/+ueSdPVrZrqIrCcyW+mhdFutl0G6TtCccS9r4yantHuTLCev0feSJalQay1HatdJnKDZl/iWFhMxKl333TvOsOq2f+2jfYX3GKSrfjhIV/1QkpyqPF2g3INHtHVztj5693Nln3JI1fl6f/GrujTtLl3mYVIY2gQAAACM1LhDEwAAANqobhFdva/UDj/LMCEh5zIknF7m6ji0Uc8++47+9uw7enX9qUZvnlBWVt18JBqgW+5t/oF062qr9TJKgmbNGlr7N3UdkMVS990Lt8i6u3axi3miJngadSs0TO63q6vs8j7rR2fWHttXqKK7p2hY2kTN/9lP9cq7v9b8fnVHAVuWPsm0N1GENgEAAIDWQTAGAACgnUiO6Onzunszj8v66vaz/7a+ul17M48b8lltVpd4dXEvF5ao0MOqxZs/0wsvfaAXX/pAy3c27t1fquKiusWwJPVO8fShLhUXl7ewwheqrdbLOEmz0zSqNhqjLeuyZJNUsi5b213S2XllPG2gW7wS6xYdR/N1wtjqtnMdoH0ljNQN1/Sv+0eNjh8vPn8d2gQAAABaCcEYAACAdiIhPF6xob5NQr1nfZ7OFJ57OHqmsFx71uf5VDY2NEYJ4fEtqmObktRPQ90JPvs26rO85nJjSvTZmr11y9EaPvyiRu/HKN69Oxx52nPAQ45NUab+s66qxVW+MMbWKzrq3LxBpaVt5EF78kRdNqJ20bE5Wxsqq7T+811ySFLsJZo92csozD0GaVRy3fK+jfo0t7l9ZtMH992hOd9YqDnf+J1e2NvMakaJCD87nrS9qolsjlbRVtu9pGMb9dSDL2rxgy/qwTf3yNPgaBXl596NimpiLqz20iYAAADQ7hGMAQAAaEdS43ybivvaeyY3+V8gP6PNCx2uq67oUbvsPKznfv26Pj/paLiOs1Rbnn9af9lQ98C7x2RdPbFxbkVvjRkbV7d8Qq8/8C9lFtQ0WqdGJ7NX6/7bXtCOqNYa4s3YenUxXXQ2Y+DQZ+u1qxWftTevh2bNHlC7WJWj9Ru2ad3G2r9dzKUTNbWJZ+0NDdY11/SuXaw5pBcffF/bzzR6+O6q0t53XtRfLUU6fbpEp8MGa/yggH4J71K6q1fdYvnWHO2obuXPl9R2272kRKdyV1r0/vsWLfvLy/rz+mI5mlit4uAn+ut7+XX/6qbhI5qqYztpEwAAAGj3vHQdAwAAQFuSEpmkxIguKrafMWT7iRFdlBKZZMi2W1+Y0n56sy5f8xd9XOBS5Z5VuuNbmRoxeaRG9IpTaPlp7duSo63H3T3nu+qye7+rKefNixGqad+fq2H/fVt7aqTKXSv0829t0Ki0IRp8Ubxcxad1PPeQtu4vUU30KH3/6hK9sayk8UYMYGy9QsbN1DV9P9XrRyXH/g/14/n7NWtSf3WPDjlv3Zixc7Twsl5NbEWSjuujZ17XXh/uPMJGmHX31f08rtN/VpoG//WwDqhCnz/7ruzlkhShS2ePUZT3b6Xht9yi6z95VO/kOWXLele3XLNOl0wapiFJkbKXFCs3Z6eyj1bUzTEUr1mLvq0JrX3X1H+80ge9o70HXVLeSv3s+sOaMjpJcQ3ihKEae+NPdd1woyrRVtu9pLg0/Wh+L6199Ws5a47p7Tvv0drRozV+SHd1iwmTs6pUJ4/lavNXeSqui9KEj7hc149uamPtpE0AAACg3eMSEgAAoJ0ZHTdCG0q2yO4K7PBFESERGh03osXl56VcHcDaBEj3ND3w7E8Vct8rWpVrl6qLtWvdF9rVeL3IZF1+3yItvqJbk5sJHXytnnjgmG7LWK+8aklVp5WzfqNy6q8U1UvffuhWfWvv43rDmG/TuvUKG6RfPHy9she+ox02qfLoLn109Lw9J0nqWnWJh2BMoTa8vVIbfPjIyKtGeA3GaMBEzR64VAcOSacOHK0rOFqzL/Vxdvn4UfrV326X/Z5/6P39VXKVnVTWmpPKarxeVIouv3eRFl/ZdJswVl/94H+v0ZqFH2pfpVR+dLdWH93daJ1QOWYZGYxpu+1eCteYX9yj33/9mB7+pEB2VevE9s1asb3ptaP6TdPix+bKdH4csVa7aBMAAABo7wjGAAAAtDMxYdG6JGGkNtu2yenyMI/DBQgNCdElCSMVE+bjA+12JGrQTD3yr1G6bvmn+mD1dmXvOalTtio5o2LUo7dJYyZN0LcXmDWlj6e8ihD1ueI2vTVskt7+l1WfZR7Q4ZOlqnBFKrFXH42eMlnf/f4cXdonUvtbdS4JY+sVM+pbeumNAXrzlVVa+cV+5RZWqNIRmDbXcn00Z1YvvXDo67OvRExO04w4D0UaCe8zSfe/nqprl3+sdz/Zqqy9BTp1plohMbFK6mvS2MkT9a3rZ2pirwgD6u+buEsW6JV/9tdLL32i1ZuP6HhxpezO1q5FW233kiJ66duPPKJxc1frrQ++0sacozp+ukKVNS6FhEUoJqGL+g4erLT0GbrhO+PUz8t0W+2hTQAAAKB9C3G5AnQHDwAAgBYrLi7W1q1blZiYqKiI/T6VKbIXK9u20+8MmYiQCF2SMFLdIhK9rwwAaDPyC3oqMTFRY8eODXZVAAAA4EVosCsAAACAlukWkagpXccrMaJLi7eRGNFFU7qOJxADAAAAAICBGKYMAACgHYsJi9akLuOUX12gfWWHVO6s8KlcbGiMUuMGKiUyyeAaAgAAAAAAgjEAAAAdQEpkklIik2SrKdVJe6GK7CWqdFapylktSYoKjVR0aJS6RXRVckRPJYTHB7nGAAAAAAB0HgRjAAAAOpCE8PjaQIuXyaoBAAAAAEDrYc4YAAAAAAAAAAAAAxGMAQAAAAAAAAAAMBDBGAAAAAAAAAAAAAMRjAEAAAAAAAAAADAQwRgAAAAAAAAAAAADEYwBAAAAAAAAAAAwEMEYAAAAAAAAAAAAAxGMAQAAAAAAAAAAMBDBGAAAAAAAAAAAAAMRjAEAAAAAAAAAADAQwRgAAAAAAAAAAAADEYwBAAAAAAAAAAAwEMEYAAAAAAAAAAAAAxGMAQAAAAAAAAAAMBDBGAAAAAAAAAAAAAOFB7sCAAAAaOjBJcuCXQUAQDtw6623BrsKAAAA8BGZMQAAAAAAAAAAAAYiMwYAAKANKS4upqczAAAAAAAdDJkxAAAAAAAAAAAABgpxuVyuYFcCAAAAbdsr2a9o/qj5iouIC3ZV2qUXs17UDaNuUHxkfLCr0i69uu1VfXfEdxUbERvsqrRLtD//cPwDAABAIIRlZGRkBLsSAAAAaLvK7GW65q1rFBkWqUv7XRrs6rQ7pdWluvbf1yoiLELT+00PdnXanXJ7eW37C4/UtL7Tgl2ddof25x+OfwAAAAgUhikDAACAR89uelYF5QV6/IvHVWYvC3Z12p2/fvVXFZYX6k9f/kml1aXBrk678/fNf1d+Wb4e/+JxldvLg12ddof25x+OfwAAAAgUMmMAAADQrDJ7meYvna9ye7nK7eVKjE6kd/gFKK0u1YJlC87uv67RXclOuADl9nIteHeByuxlKrOXqXtMd7JjLgDtzz8c/wAAABBIZMYAAACgWe5e4W70Dr8w7qwEN7ITLow7K8aN7JgLQ/vzD8c/AAAABBKZMQAAAGhS/V7hbvQO9139rAQ3shN8Vz8rxo3sGN/R/vzD8Q8AAACBRmYMAAAAmtS4V7gbvcN90zgrwY3sBN80zopxIzvGN7Q//3D8AwAAQKCRGQMAAIDzNNUr3I3e4d41lZXgRnaCd01lxbiRHeMd7c8/HP8AAABgBDJjAAAAcJ7meoW70Tvcs+ayEtzITvCsuawYN7JjPKP9+YfjHwAAAIxAZgwAAAAa8NQr3I3e4c3zlJXgRnZC8zxlxbiRHdM82p9/OP4BAADAKGTGAAAAoAFvvcLd6B3eNG9ZCW5kJzTNW1aMG9kxTaP9+YfjHwAAAIxCZgwAAADO8qVXuBu9w8/nS1aCG9kJ5/MlK8aN7Jjz0f78w/EPAAAARiIzBgAAAGf52ivcjd7hDfmaleBGdkJDvmbFuJEd0xDtzz8c/wAAAGAkMmMAAAAg6cJ6hbvRO/ycC8lKcCM74ZwLyYpxIzvmHNqffzj+AQAAwGhkxgAAAEDShfcKd6N3eK0LzUpwIzuh1oVmxbiRHVOL9ucfjn8AAAAwGpkxAAAAaFGvcDd6h7csK8GN7ISWZcW4kR1D+/MXxz8AAAC0BjJjAAAA0OJe4W6dvXd4S7MS3Dp7dkJLs2LcOnt2DO3PPxz/AAAA0BrIjAEAAOjk/OkV7taZe4f7k5Xg1pmzE/zJinHrzNkxtD//cPwDAABAayEzBgAAoJPzt1e4W2ftHe5vVoJbZ81O8Dcrxq2zZsfQ/vzD8Q8AAACthcwYAACATiwQvcLdOmPv8EBkJbh1xuyEQGTFuHXG7Bjan384/gEAAKA1kRkDAADQiQWqV7hbZ+sdHqisBLfOlp0QqKwYt86WHUP78w/HPwAAALQmMmMAAAA6qUD2CnfrTL3DA5mV4NaZshMCmRXj1pmyY2h//uH4BwAAgNZGZgwAAEAnFehe4W6dpXd4oLMS3DpLdkKgs2LcOkt2DO3PPxz/AAAA0NrIjAEAAOiEjOgV7tYZeocbkZXg1hmyE4zIinHrDNkxtD//cPwDAABAMIS4XC5XsCsBAACA1lXlqNLXtq99WvcvG/+ipzKf0qLJi3TXpLt8KhMTEaOUuBR/qthhLF67WBnWDGWYM3T/zPuDXZ02gfbXemh/56P9AQAAIBjCg10BAAAAtL6osCgNSBzg07qJ0Yln/+9rGcAT2h+CifYHAACAYGDOGAAAAMBAZpNZGeYMmU3mYFcFwAXi9wsAAIBAITMGAAAAHvEw0j/ppnSlm9KDXQ0ALcDvFwAAAIFCMAYAAAAe8TASAAAAAAD/MEwZAAAAAAAAAACAgciMAQAAAAxkybXImmuV2WQmwwhoZ/j9AgAAIFDIjAEAAIBHllyLFq9dLEuuJdhVaZesuVZlWDNkzbUGuyoALhC/XwAAAAQKwRgAAAB4xMNIAAAAAAD8QzAGAAAAAAAAAADAQARjAAAAAKCDMpvMyjBnyGwyB7sqAAAAQKcWHuwKAAAAAEBzCCb4J92UzsTzAAAAQBtAMAYAAABAm0UwAQAAAEBHwDBlAAAAAAAAAAAABiIzBgAAAAA6KEuuRdZcq8wmMxlGAAAAQBARjAHQYu6b+8Ya3+w3t15zKE95ylOe8m2rvOWwxedtAIFGMME/1lyrMqwZyjBnsP/8YDlsabPHaMpTnvKUp3zLynNtAaC1EYwB0GLum/vGGt/sN7decyhPecpTnvLtszxgBIIJaAssuRal56a362M05SlPecpTvmF5ri0AtDaCMQD8lm5KV/qAcxcwZlTLz/8AACAASURBVJO5wftmk1kZZt8vlChPecpTnvJts3zj9wGgo6t/HGzrx2jKU57ylKe8b+UBIFhCXC6XK9iVANA+LV67+Gxvkvtn3h/s6gAA0CYxFIZ/uN7wD/sPAICGODcCCBYyYwAAAAADpZvSCcIAAAAAQCcXGuwKAAAAAAAAAAAAdGQEYwAAAAAAAAAAAAzEMGUAAACAgZgzBgAAAABAZgyAFjObzMowZ8hsMge7KgAAtFnWXKsyrBmy5lqDXRUAAAAAQJCQGQOgxZiQGAAAAAAAAAC8IzMGAAAAAAAAAADAQARjAAAAAKCDYlhZAAAAoG1gmDIALcaExAAAwGgEE/zDsLIAADTEtQWAYCEYA6DF3BMSZ5gzuMkHAACGIJgAAAACiWsLAMHCMGUAAAAAAAAAAAAGIjMGAAAAADoohpUFAAAA2gYyYwAAAAC0WZZcixavXSxLriXYVWmX3MPKWnOtwa4KAABtAtcWAIKFYAwAAACANotgAgAACCSuLQAEC8EYAAAAAAAAAAAAAxGMAQAAAAxkNpmVYc6Q2WQOdlUAAAAAAEESHuwKAADQkbgnSq6v8aTJTa3jCeUpT/n2X56J0xFslsPnj4vfVn4flKc85QEAQGdAMAYAgAByjz9cX4Y5o8HNdlPreEJ5ylO+45QHgsWSazlvouK29vugPOU7a3l3IIcADQAAHRvBGAAADJBuSlf6gNqb6cZDE7mHLPIV5SlP+Y5THmhtntpsW/t9UJ7ynbW8O5BDAB8AgI4txOVyuYJdCQDt0+K1i8/eNNw/8/5gVwdoE/hdAEBgcVwF0NFxnANaF785AMESGuwKAGi/mJAYAAAAAAAAALxjmDIALcaExAAAAAAAAADgHZkxAAAAAAAAAAAABiIYAwAAAAAAAAAAYCCGKQPQYpZci6y5VplNZoYrAwAAhmCOOgAAEEhcWwAIFoIxAFrMmmtVhjVDGeYMgjFAHS7sASCwmKMOAAAEEtcWAIKFYAwAAAHEhT0AAAAAAAAaY84YAAAAAAAAAAAAA5EZAwAAAKDNYo46AAAQSFxbAAgWMmMAAAggS65Fi9culiXXEuyqAECH4J6jzpprDXZVAMAQzDkItC6uLQAEC8EYAAACiAt7AAAAXIh0U7run3k/PfQBAOjgCMYAAAAAAAAAAAAYiGAMAAAAAAAAAACAgcKDXQEAAAAAAIDOisnEAQDoHMiMAQAAAAAACBLmHAQAoHMgGAMAAAAAAAAAAGAggjEAWsxsMivDnCGzyRzsqgAAAAAAAABAm8WcMQBaLN2UzpjGAAAAAAAAAOAFmTEAAAAAAAAAAAAGIhgDAAAAAAAAAABgIIYpA9BillyLrLlWmU1mhisDAACGYI46AAAQSFxbAAgWgjEAWsyaa1WGNUMZ5gyCMUAdLuwBILCYow4AAAQS1xYAgoVgDAAAAcSFPQAAAAAAABpjzhgAAAAAAAAAAAADkRkDAAAAoM1ijjoAABBIXFsACBYyYwAACCBLrkWL1y6WJdcS7KoAQIfgnqPOmmsNdlUAwBDMOQi0Lq4tAAQLwRgAAAKIC3sAAABciHRTuu6feT899AEA6OAIxgAAAAAAAAAAABiIYAwAAAAAAAAAAICBwoNdAQAAAAAAgM6KycQBAOgcyIwBAAAAAAAIEuYcBACgcyAYAwAAAAAAAAAAYCCCMQBazGwyK8OcIbPJHOyqAAAAAAAAAECbxZwxAFos3ZTOmMYAAAAAAAAA4AWZMQAAAAAAAAAAAAYiGAMAAAAAAAAAAGAghikD0GKWXIusuVaZTWaGKwMAAIZgjjoAABBIXFsACBaCMQBazJprVYY1QxnmDIIxQB0u7DuG4uJibd26NdjVACApRCFKV7p0WLIetga7OgAkJSYmauzYscGuBrzIzc3V4cOHg10NoM3h2gLwbMCAATKZTMGuRodEMAYAgABKN6UTnAQAAAAAAEADBGMAAACakZiYqKiI/cGuBgAAbUZ+Qc9gVwEXaMCAAaoo2xTsagAA2riYuDQyKg0WGuwKAAAAAAAAAAAAdGRkxgAAEECWXIusuVaZTWaGKwMAAIBXzDkIAEDnQGYMAAABZM21KsOaIWsuE0ECAADAu3RTuu6feT8deQAA6OAIxgAAAAAAAAAAABiIYAwAAAAAAAAAAICBmDMGAAAAAAAgSJhzEACAzoHMGAAAAAAAgCBhzkEAADoHgjEAAAAAAAAAAAAGIhgDoMXMJrMyzBkym8zBrgoAAAAAAAAAtFnMGQOgxdJN6YxpDAAAAAAAAABekBkDAAAAAAAAAABgIIIxAAAAAAAAAAAABmKYMgAtZsm1yJprldlkZrgyAAAAAAAAAGgGmTEAWsyaa1WGNUPWXGuwqwK0GWaTWRnmDJlN5mBXBQAAAAAAAG0EmTEAAARQuimdTDEAAAAAAAA0QGYMAAAAAAAAAACAgQjGAAAAAAAAAAAAGIhhygAACCBLrkXWXKvMJjPDlUFFNRE6ao9VQXWUSl3hqnKFSZKiQhyKD6lRUmSV+kaUq1u4Pcg1BQAAwdLW5xw8XROpo/YYFdijVeYMV4Wz9nomJtShuNAaJUVUqm9EhbqHVwe5pgAAtG0EYwAACCBrrlUZ1gxlmDMIxnRiR6tjlV2WKJur6UutGle4yhSu/Ipo7ajoqoSQGl0SV6y+keWtXNPgOvFGhq56cv/Zf0fOWijrn6Yq2lvBUot+Zn5RGyVp8Dwte3ueBhpYzxbL26yXVuTKLilm5HTdMiM52DVq2/zaXwV65aa79fSuC/vIyKvuVuZDEy6sUEfkz76v/3tsSmiE4rokKGXgIKVNn6brvztRQ+JDAlBpoONoq3MO5lXHKqssUTZnRJPv2xzhsjnCdcIere1KVEKoXePiitWvs1zPVJ3Spv9+qvdXb9e2vSdVUFIlV3Ssuvfqp9ETx+ub89N1aT+vVzXwGed6v3CuB9oEgjEAAAAB9EnJRSp0RF5QGZsrXOtKe6pnWLW+0fWEQTVrayq0IfNQg1eqN+Voq3OqJneUgXTzsvTS8xZVSOp63VCCMd6wv4LHyH3vtKus+LQOZp3WwaxNeufVVP1oyZ26fWo38ZgGaJtKHeH6oixJBfYLvJ5xRmitLUlJEdWaFleg+LAag2oYfFUH1yrjl//UysONsoFKbfp63059vW+nPn77I6XfdZce+t4gxQWnmsA5nOuBNoFgDAAAQABdaCAmUGXbnZqdytzikCTFxcWorKxCsuUoc480eUSQ64Z2rqemzE/TYB/udMJGEPAJqK6Ddc3cVHWt/5qjWiX5R5X11T4dK3PJVbJPL9/9mJzP/UF3XRITrJoCaEa+PUrrbElnh1ZtiQJ7pFaWXKQZCQVKiagKYO3aiNOb9IeFL+jjk67af0d01bBJIzWyd4xqCgt0YOde7cyvkmpOyfLEo/p1zIP663c43wQW5/qg4VwP+IVgDAAAgJ9KK0IUH+Nq89tsU7bt1MaK2sWxV07V4XdX67gKlLkxXxqREty6oZ3rravuuEnfjA12PTqhnmP143ubHjbQWbJfr/32z3pqQ4lkz9P/LVmuq/59vYZ2lEw4wA9tZc7BfHuUVttS5HT535e9yhWm1bYUzU7I72ABGYc2vfDa2UBM1NDL9OiTN8ncq97jNftpffnSc/rNCzt1RmVa/5e3ZfnG7UqPD1KVOyTO9UHDuR7wCz8HAAAAP1TbpUMnAn9JdfDrUFXbA77ZNmNv5g6dliRdpFHfGavRdUOq796YI9uFbChEDH8AtAOhXYfolsd/rm/1rP236+AavZ/dgQPOwAVwzzlozbUGrQ6ljnCtsyUFJBDj5nSFaJ0tSaWODtQP2LlbH606VbscOkA/f+SWhoEYSYrorqk/v0u/nFl3cWPbrI82NBrODOiAONcD3nWgMyIAAEDry80PVY0j8Nt1OGu3PaSv0+dgQ17lce0vP6QSR6nkciohPEGm6D4aHDNAISFtKWRRrK82HqtdTBiqccOGqccoadVmyZmdo03VszXL1xHbQkIVKslxarf+/fxyffD5XuUWVissvpv6j7pYV86/VjdMT1aU1w05Vbjtc7317pf6IvuIjhaWqrTSIVdYhOK7dJdp5AjN+vYVumF2v6bHfc9+XXN+srIuwHS+kncf0bh3m36vuYllj792v+Y+dUCSNCPjRT0916FdKz7UC0u3aOfhQp22h6t7H5PGz5ium26eoZGJPgQFS4/L8p/VWmHZpR0HTuqUrVqhMbHq3rv/2cmGp/X1vrckSfZiZa/4VMs+26bsPSdUWFIlZ2TM2W1de71Z0/s3MzSFAfsrIJy7tOTyJVpaJClqgh797G5d7nF0jSK99sM79OR2SRqke5c/oJt6NbOqvVhZyz/Wu59uVfaeAhXaqhUam6CUAYM0YfpULZg/WakJHn6n9SfPHTxPy96ep15HNuufz3+kjzfm6lhJjSITumvA6NG6csFcXT8lSU3+jIK572NH67tXJemD1wokndGW7BPS+GZ2WADaauB/Q34eJxrzt00Y8h3RWX1R5t/QZM2pcoXpi7IkXd7la5/LtOnrmYI87S2pWx4yUXNMzdUnTunpw6S1WyXZtX9/vnRZv/PWMuQ3XHVKG//zsd5bvV3b9hXWHT/jlTxgoMZfOlULrp+iYZ62c3yFvnftm9olSWNv0qcvX6kezaya9cQd+vGbRZJCdfUTr2pJ48SuJs5d/U7m6N8vrtB/1u9TbmG1QuO6qt/I0bry+mt1ozlF0d6/oX8413Ou94hzPYxFMAZAi5lNZmWYM2Q2mYNdFQAIiuKyEJVWGvdQoLQyRCVlIUqM896j7EjlMW0q2drgtRL7GW2zn5HL5VJq3CCjqnnhynZoQ07tYtglwzU2NF49xvWRNh+TKnO0YZtLs9J83K9hoQo5ulZ3//gFrTtVbz8VF2j3+jXavf4Lrfz+3Xrunosbjm3dQIWy//G47nhhr0ob72qHXaVF+cpZn6+c9eu0dNYt+tvDszWo1af3qdBXf35MC9/M07mEqWrlH9iljw7s0soPvtDdzyzSzSOae5rgUtHm9/Sr33ygTacbRQ9LbTq+N0fH9+Zo1TurNOe+RVpyXX+PAayavA1act8Len9/o6Fn7KUNJi6ecced+uNNg9vPxMWhwzQ7PV5L3yuVqnZozYZqXe4pMli0Rda6tqzhaZrVzLOGmmMb9fC9/9B7+xrtrzNFOrxtsw5v26xl//pUP33kLt2WluBTVZ1HV2vRzS8rs/Tca9VF+dqxNl871q7Xih8s0t/vGqUuPm2t9fTrlyKpQJJUVGST1HinBbatnuPvbyiwxwkj2oT/3xGdVV51rArsxp3YCuyRyquOVb/Icq/rtvnrmTOlOuNeTkpUkodV46d+R48+PEMuSVEDuvmwcf9/w9WHP1fGvS/po8ON0qttxcrdnqXc7Vl6/82PdcsfF+nOKYmtnl3sOPyZbv/JK8osrvdiySnt/dKivV9+qVU33qm/3zdWvuytFuNcbzjO9bU416MpBGMAtFi6KT2oYxoDQLB9Xei915HD6dTJnB06uXunyk6dVE1ZpSK6Jii+R5KSR12slNRhkodenl8XhioxznvqzcGKI5KkMQkjNThmgCTpQMVhbbPt1IHKI8F/eFFPzeYd2lL3lUZMGKFYSakThqvLi8d0RqXauDFPSuvv28bCyvTfRz/QuuI4pU69WKP7xst1pkA7Nu7QviKHpCrtfuNpZQx7VH+e2/StfcWGN/XL5/eq9j43RPGmYZo0qpeSE6MUWlOhwtz9+uKrYyp1OnRizSta9EwfLb13WMOeiN0H6cprZjQcYq1gn1ZknpBDUqRptK4Yndjk54ePba6/6TmuXR/qgX/nydm1j6ZOTlW/xBCdOXpAmZlHVOSQXEU5enLRy+r79kLNaiLqVLNvuW6/c5l2VtbttoQ+Gp9mUt8e0bKfPqVDObuUk18tVZ/UZ398VFHdH9WSWc0Mbm/brocXPqv3jznrvkAXDZ04UiP7xspxqlAHcvacnbh43Z8f1X0xD+rv1zWaB8jg/dVyoZo4a4Li37OqVFVab9mhmlnjm71psq3LUnbdbhg6e6L6NLlSjh5b+Fe9l1e7Ykh8isaONal/SpxqThfoQM4e7Smwy1W0W88v+pNiXvm9fpjq7TatVB888qEyy2M1aPJojemfoNAzJ7V1ww4dKHFKqtDOV/+ijNTH9OTVjfZjkPd9ZdW5BxJRERHnvR/QtlqPv7+hgBwn3AxpE/5/R3ReWWVN/+brczodOrlzh/J37lBZ4UnZKysVldBV8Uk9lTJytJJSh3u8nskqS/QpGNPmr2dcLp19Rhsa4jmYkTxEl18xxPdN+/sbLsnWQwv/oY9O1NUwuofGTBmhocnRqik5qR0bc7S/yCHXmf36571/UuzL9+unw84/DhunWMv++KEybXEaNOVijemXoLDSU9qRuV17TtdIqtKef/1N9w97VE9fa2Q4hnM953rO9QgegjEAAAAtUF4Vokovc7pUlZdr5wfvyna84dAc9hKbikpsKjp4UIXDhmrUNd9udhuV9trPio3ynB1TWlMmSTLF9D37LGRgTH9ts+1UhaPC+xdqRds35qj2cUySJqbV9ikNGTNSEyI/05pq6fDGHTr5i/5K9mVjZdn6tPBi/f7N2zRvSL2BLSqPadnvHtNDa07JpXJZnl+l3VffoOHnPTWxa91761UoSQrToBt/pX/eO0qNRwuw5byv23++VNvKXcpbulyf3DpMc+t3YOs/Tb9cPK1hoS9e1KeZJ1QhKSZtrh747cW+fKMmbV2xXrHpP9JbD87RkHqT1VYctOi3C1+S5aRLKvxSz7xxrdJ/0b/Rw6FyrXz2/bob3ggNnb9Qf7knTRfVvzeuKVHWG8/pnqe3q9hVohV/Xq6bZ92g4efVxKmcV17Ve3WBmPABM/XwUz/SN/rV25i9SJnPP6N7Xt6rcpVrw9Nv6dPL79Jlrbi//BE+KU0z461aUSrZ1m3RZsd4TW5y5J4qfb42R7VxxT6a02RXWZd2v/qq3qm7EU9Ov1lP/eFyjeha7y9UVaDP//GsfvN/+1RWcUDPPWHR3Ocu89jbWhXbte7gCN332h36/vB6PR/LcvXG/3tMf1pfIqlca55fpT1XL9Cw+mWDuu8rtHnzkbrlEPXt1/hbBrKtNuTfbyhAxwlJhrUJv78jOqvTNZGyOT0/kK8uL9PO95eq5MTxBq9X2UpUZSvRqYMHlJw6TCOundfsNmzOCJ2uiVT3cM9zp7Sn65lA8+837NSOV17Th3WBmMihV+qZv96oST3qncAqj+v9PzymBz4rlKvysF58wqJvPf8N3663AuFMllbbLtb/e/0Xmj+03rmr6oQ+/MMf9YdPT0kq17oXPtLOa76nkQYepDjXc67nXI9gIRgDAADQAmfKPF/aOhwO7Vr2jmz5+YpP6q4+U6YrsVdfRSXEq6q0VCXH8nQ0c716DvV2W1H7Wd6CMTWu2shQRMi5y7uwkNrMHZerLU2ceUwbMotqF+NHapL7zjF6pCaNDtGazS5pZ44ybVfrWl+y9Q+XaNRTD2jekEaDF0T30bwHf6ysax/X8iJJR7O07vANGj6w8QYKdTjX/WBooOb94PybLklKGPVNLf5jvDYcc0qKVu9WnofXFjFBjzw0R0MajTgQMyhdS367R3MXrVOxpEOrN+rQL/qrYb/hQpXFj9Gc2ZIiUnVL4xteSQrvqnG3/Fy3fn67Htviko5lad2hpvbXQa34qC64GNJHP37kf/SNfo0yxCK6afLCO3V3zj1aklktlWZp5RdVuuwKH+ei8dtxffTM69rr5U6n++S5+vH0JnreRlysOZfGaMWqCqlkiyzZLk2e0ESjqN4ha2ZdRHZAmmY32Vn7gJYvd8+PNEm/WnyFRjTu2BmVpOl33q6fbVmkJ7e7VPXV5/qk4DJ9z9Pd+PFiDX10ccOHM5IUZ9L3H75FWdc8rc9skvK26sujCzSsr4dttSLb5qV6fm1db9mwwZo+rfHOCGRbbfTZfv6GAnecMKhN+P0d0VkdtXseysbhrFHO+2/rzIkTiu+ZpP5TLlWX3n0UFd9FVaU2nTmWpyOZX6jnsJE+fZa3YEz7uZ4JPP9+wwe0YmV+7WJIb/3g/kaBGEmK7q1vP/ATZWc9qg9OS9Wb1+vTgm94PbYETIFdE/+8UPOHNpoVJuoiXfu7m/X5V0/p4xJJx7K17uD3NHKwp41xrudc38Rnc67nXN8OEIwB0GKWXIusuVaZTWaGKwPQ6ZR66ZyZv2ObzuTnKyYlWWMWfE/hEecS2KPi45U8bISSUocpJNT7UGfePkuS2s3jicIdyjxYuxieNlKXnP36CZo0sa+0OU9y7FbmFoeuNfswkXDcOF1+aTMP+WPG6BuXxmj58gpJx3XwsEsa6CmIFqLm/xyhGjD9Mg3wXiNDdJt9qaY187wsdvo0mRPW6QObpMN52u+QBjXYdf214MG7tMDrp3TV0NQu0pYSSYU6/rWkxje9hQeUc7JuedBkXZna3A5L1Oz0IVqSuVNSjQ4cyJfk49BzfivUhrdXaoOXtQbEzGz6AY0iNG32GEWvylSlzmiNZZ9+PWHoeWs5vtqi9XUj7vRLn6gmB6I5dfDc/hoxSpOaHWGjh6ZM6S1tPybpsHbtkjx2jYweqyvTY5t+L36cLksL02drHJIKdeyYpGA+oHHaVXrymDZ9/F89848vlVs31EvyN+dpXkrjlQPYVhvx7zdUn5/HCaPahAL5HdGZnLR7ni49f/u22kBM8kW65IbvKyy8/vVMgpKGjVTP1OE+Xc+ctEdLMSUe12k31zMG8Os3XHhQOwvqlnuP12XDm/mBR9cGIT74sEJSrnbvltdjS8DEjdOV05tpbwnjNSctTB9/5pD0tQ7luqTBnq7ZONdzrj8f53rO9e0BwRgALWbNtSrDmqEMcwbBGKCO2WRWhjlDZpM52FWBwaprPGfG5O/cIUkacqm5QSCmPl8eXPjyWZLUuLPosvwVHv/d2LyUq32qi7/KN+7Ujrrl0RNGqv4t+aC0keqhPJ1SlTZ+tV8yD2tqEw0l9dBFze7GEF2UkiipQpJLpbZKSY3vXpI1ZFCUtK9K0n796+n1mvabS2Vq5t43WPr08TCISEhP9b5Ikk2Sq0wlNkneh/9vUmiYe2faVd1UT7/iMp19jJbSXRd52Fb3+b9V1vyW1SPYoqdN1NSoTK2pkvKtm7X73qGNhsZwafO67LoxxXto9pxmbsmLSuWeozgmubs8JXt16RJXt1SjkpJKSR4ekKYkq2+zd3IRSk5JkFQsqUoVrTmqz4FlmjdhmdfV4i++Tk/eN8bTN/TKa1ttxL/fUACPE0a1CbXecQIdS7nD85O6kznbJUkDL53ZIBBTn6/XM94+S2o/1zPnKV+rhTOe1xfNvN19/v/qs1+P8LgJv37D9c/PfZPVu/kNKTmlm2qvjewqLvZ+bAkYj9dsoerbt6ekfEkulTV5zRZYnOtbiHO9d5zr4QHBGAAAAijdlE5wspOw13h+v+xUbffEhL5NTvMZ0M+SaufMbfujdzi1KXNX3bjbvTRxYqOeiqNHKi1mlVZVSAUbc3RIw7x1gJPCQuXpEVBo2LkHP05HUzsoTNPnz1Lvj1fquMulvP/+XfNWv6XUMakaNaSvBg/uq8FDTRo5JEUJrTnHbSPh4Z4eYCVoxOwZunaYJPWSqZlVK/KytfTNNfokc78O55eqtNJx4T2QnY66v5+87vvgGaPF636lb/oTUIsdq9mTI7RmrV06tkVr9t2o4an1Vzgo69q6x17JEzWnuedr9fZXxfInNG65bx/vqHF6XiE83OONXEioO4Dralu9zKN7aNK8G/W/t09Rfw+j1gWkrTbi328ogMcJo9qEAnOcQOdT6fLcGMpPnZIkde3Xz/DPktrL9Ywx/PoN1z8/R4Y3PaF4nbB6wTNfji0B4+W6ITLq3AHU6fTWCDjXc64/H+d6zvXtAcEYAAAAA7XW7dF3kq9qlc/xz0Ft3Fg31kO3EZrYeKyH8BGaNDZUqzY4pQM7lFk4TwN7Gl+ryEsW6Jnfl+jux77UkUrJWVGkPZkbtSdz49l1QmJ7aMzMmbrpJ1frskHG9tS8cPGacevPNKPZ913KX/OSbvudRYcqW7Fa7VqMzLNGKWxtthz6Wlbrcd2WWq+f8d4tWlc3NH/y7DRdzOyotboO1jVzU9W13kuukHDFdemilIGDlDYxVaYunp4MBKutevsNdYbjBOBFK0VI2sf1TBMi+mrW965s2Ink2Ha9ZT12LkjiF37Dgce5vkU413Ouh18IxgAAALRARLhUZW/+/bgeSbId/1pnjhxVj8EeZyD16bM6hMM7tME9fnKXUmW/vkI7G62S74iVVCrpgDK/qtT/Z+++45u67v+Pv73xArOXQYRl9rRZAa6ADCBklOzRpk3bjCZpBun45dsWkTRpk3SkzWib3TSjTUJCGkpIWBLbBmOGzQpLmGVssI33kPX7wzIBY0nGSEjGr+fjkUeu8dHV0fXR1dX53M/n3DbjYpTOiFDv6x/U/IkztOSLNbKm7lTmziM6eqrqdCjNWXpCWxZ/pi3L1+qGZ3+luVMaqj8epA5+pSf+z6r9rrVUIzv11viRJnVrH3XOHarHN1q1ZDcRG0mKN5I1Omyz0hzSLusmHflRt9NlX/atzFB2bStNmZqkxszPhF82WreOb1xh/l59m+mbvsNw3TNntveMNneCeqz6/jzRIsYEgl6rEIeqnO7zFWLat1fhsSMqyM5W+94NrphxXs91yYrorZvm1Fsqe9U/9LHPgjHwBz7rm4DPej7rcUH4KwMA4ENWu1U2u02GyaBc2SUuMtypiir3X8s6Jg1S0ZGj2rtquVonJioi6tw8/YqiUwoNC1dEjOcaC5HhQVV8oMlOpGZqb90P9jS98mKah9YObUzbKceMEbpYGfbh7Xtrxvd7P0YQ7wAAIABJREFUa8b3JalG5SdzZd93UFvSN+vL+au1+YRDqszRgnnv6vLkR3SFpwLQQcOpDR9+oUzXF9525h/pnWfM6uEmxpXxx1SCMXXajNa0kW8pbWONtHOjrMdn6Y5OkpSnldaDtW0SRmvqiMbdKhsx2Kwn5oz0W3ebv+YxVn15nmBMoE4g1xyMCXOoqMZ9zZ2OAwar8NgR7V+5XAndExUWde6bsqK4UKFhEYqI9nw9ExNGWAJBhs/6i4zPeiA4yzwDANBM2ew2WWwW2ey2QHcFfhbnJSu92/CRiu7YSeUn8pX+7ts6lpWpiqJiOWtqVHryhLI3pSv9/X8q8/P5qq7ykGLTiOdqHiq0Pm3PeT2iOC1TO7w1ctTIU3XlGse3Ez+hoedTXyJUrdp1VlJyim6578d6e/4vdEsP1+OLMrQk1fPfLHgcU0ZG3ZK+vXT3HPdfeBslNOzb4JiXY68ahyorqlRRUaXKBtfrCXbxmjKlf+2dsM69slpdxzFvk2w7azdbGyka7SlaeMbxqqyo8ny8Wjwfj9WLognnCcYEGmA2mTV38tyA3MjTKcLzRGfXkSMV17GzSk6e0MZ339Sx7dtUUXzq9PXMoU0btOlf7yjrs4/lqPb82ejtuZqFkJBvMyRqvBSjddSczoqJ8LjOgw+c+flcWS1Pa507ar4984RHNNCviDCdDs+VV8rT2vDV1XWvMNx7JreX64bKM1LOQ8MuVk0wPusvLj7rATJjAAAAmqB1rFNHT7r/ohgaFqph37lJWz//RGU5x7V78aIG28X3S1JYmOcv6K1jm+NEdj2OXUpLr67djp+sV5ffq/EN3hZUqs8eul9PrauRjm1X2kFpSE8P+807oWM1Up8G9+XUsZwC13aIYuMv4Nte/CDdNqunPvqbXVK1jhwpkNS4kgOBVayCfNdmWEd16+yprVMFBaWed5cQ+22N8OMnlSOpl5umJz7+na54vnYm47IfPaNPHzA1ttNBo+PUZA3+w05lOp3atCpDRbeYVbNqs7Y5pdO15j3toG2cElybjkM5Oiapm6f2LZqPx2ogNOY8wZhAkEmMKNO206PyXKEhYRrynZuUuWC+io8f067FDa9E3bF/kkJDPV/PJEZ4mtZvJlrHqXXddl6h8iQluml6IufE6WBMQps4//brzM/nQ8d1RFJSgw2dOp5Td7KNUJs2Dayw3qa12oVIcko6nKNDcvcay3XkSLFru7XatvfSx1xP12w1OnQoz7UdorgLuWY7T3zWX0x81gNkxgAAADRBTJRTrdxX9ZAkRcXHafTt31PvKdMU362rQqPCFRoepsh2bdRl8BANu+0O9Z12lUJC3V+StYqofa5mb0emUotqN8NHDdIIty85RikpddP72UpNK/K83+IMLVlb0fDvyrdq6Zq6iZ+uuszUQPDscJpefPoNzXv6DT39wS55ume3rPTb30ZFRXrulyRFhJ++86nK0wJDfhWtuLr5H0e2du31MJbyU/XfVW6OZZ0OfTS47vvm3g362u3+8rXMWleULkJ9+nTx3tWgOF71dErRFQNrNx3pm7W+vEJrVu+onVyLGaGpY73c29a+twZ3cm1/k6aldnfHq0ifP/Gwpl35oKZd+Su9vts33W+0oDj2Ph6rvuTL80RzGRNoMdqFVyo+1PP7PiqutUbe+T31NV+pNl26KTwiUmHh4YpOaKsug4dqxK13qu+06R6vZ+JDq9Qu3FO+RjPRsYf610U9vknTsmx37+GT+mppXUZwjAYNbsTn4IXocJkGdnBtH8nQsl1uSsJVZGr56WujXho4oIE2kX00pL9ruzhDX65yE0Q7uV6LN7ju+W/VV8O9LSlUkqGv17g5dxdv0rL0uj53a/iazV/4rL+I+Kw/G5/1LRHBGAAAgCbq2sF70nloWKgSR43WyNu/q4kPPa6Jj8zRuB/cp/7TZyqhu7t7Kc/vOZqDA6mZynFtD0keJE+V1xJTBql2ysKpLalZ8vg1rLVT1mf/pgX76rUqP6rPf/OWFtbdfdd9pCb3PufRUkKN7IutWrDAqk//8pb+vKagwYV2y/Yt0cuf1b2CthowsE0Drerp3E5dXZulW7KUGZA5qG4aNjzWtX1M7z31oVJzq+u1qdbxzcs194HXlRnl7XX11syZrgklZ7befPIdWY/W219VvlJfeUl/SXN90Y8fqekTGrjztr6gOF71tdeUqa7gYEWW1qzfqlWu1xV9eYrGe43J9dGsWa57Iav3642nF2jbqXpfyJ0V2v3xG3rZmq+TJwt1MqyPRjU0Vv0pKI69r8eqD/n0PNFMxgQuKqvdqnkr58lqtwbk+UfGFnhtExoSpu6jkjXijrt1+cNzNPGnP9OYe+5X0tWz1Ka7pxTWxj9HsxA6QDOudqWA1BzQ33/xnlYfr3dGcBQq7aW/6pVNrnNY5wmaNdrf0299NXOGK83AeVjvPvUfbcivdw1ZfkwL572lz0/W/hiZfLmmNZjk20kzr01yTdyf0hcvvK2vD589eV9zao9e/8UHWu+6/Go/fZLGeblJSZ0ilfbsq5r/Tb1p7srjWvTse/q6boh0H65JTV4dvin4rL94+Kw/LRjGBAKCMmUAAABNlBDrVFwrp4rL/XP3XlwrpxIuhRJlKlZqarZru4tSUtp5bp40UCnxC/VFkVSxMVNbasZpjLs5jI7DNSlinebd9qg+HDtEQxJjpVO5ykzN1O78uq9QMTLuna6BDf2ZYpP1g1u6auW7R1VTfVgf/fRxrRw6VKP6tlPb6DDVVBTr+GG70jdkq8C1u/CBV+nmoY142T1Hydz7Y+3e55SyF+u+mw9o3NCOij2r1kWoht/+Y93Y0J2pPhGqCXdeo6T/faRd1VL5jkW6//r1GpzcV326xMlZcFJH7Pu1ZU+hqlsN1p0zC/X+p4Ue9zf4+9/TDUv/oAWHa1S5Z5ke+85GJY0ZpMHdY1R9Ik97M3cqK6cuOBajcQ/fqmmNqc7is+N1RF++9J52N+KbTthAQ4/N7OG5W1OS1eflA9qrMq1+db6qSiUpQpdPHSbvIaYQDbj7bt285Dl9nF2jooz5unvWKo0Yk6S+HSNVVVgge9Z2bT5U5lp3IE5THr1Boy/2t7RLcqz6kE/PE81kTOCiqltz0GJYArJuTI/IUnWMqFRuVSOyPpugY0SlekQGYbmhJglT8o+/q6tW/EVf5zpVvusrPXx9qgaOHaSBXWMVWnpSuzdmausx1+dgSFtd87PvaJR/Du0ZQjX0B3dp1pI/aeExpyp2LtK916Zp+NiB6t8pStWFucpKO+PaqFUv/fhxszq52VvXG7+rexbO02s7q+Q8vFa/uGm7/jluiAZ1aaXqk0eUnrpD2UWua9T2yfr5/cPltbBYp1EyO5brt3c+qg9ThmhYz3iFFucpKzVTO0/UBXtiNOnHMxq+ZjsLn/Xnjc96z/isx0XCnxkAAOACmDrXaGe27xdlDQut3XdTze4804e9uUDlmVq/zfWFvc0gpXgrYxE2QGNGhumLlQ7pVJZSd0tj3H4p7KK7nrxR++7/RNvXrtO52f1RSrrzYVlmtXXz+HAN+8nj+vXR5/XsklxVqVLHtqVr0baGW0f1mKB5z1+jxlXPSNT3/m+WVjz4hb4pl0oP7dTyQzvrtQmVY4o/v/RKoX2u1R+fOqwHLGuUXSmp4qSy1qQp68xGUV11w2/v1fW7X9D73nbYepiefOUncj7xuj7fUyFVFWrXmnXaVb9deHtNevin+t2NHguCn8FXxytP6z9arPWNeMbIGQO9TtCoV4qmXvaJ9u6XTuw95HrgUE29vJH17OMG6+evPKSqx/+hBXsq5Cw5rowVx5VRv11UZ10151HNm+5urPrTJTpWfcbH54lmMSbQ0kyIzdXiwi6qcPr2miYqxKEJsblNfnxQXc/UaZesp179sUKeeFtf2aukygLtWLVWO+q3i+qimf/vMf1mykW6u7/NSP36lftU/fibWmyvksrytMW6Slvqt4vvq7t//6h+mORhSjCyl+7/y2MqffxlvZdVKlUWaPvK1dper1l4t9H6xZ8e0FWNWUbP0V63/OoWZd3/b21bv157z/mgjlT/2x7UvGsbc87js/788VnvGZ/1uDgIxgBoMsNkyGJYZJiMQHcFAAImMkLq3dX3pcR6d61RpLdyD81EzeYsbXSVQogcPUjDvAYyopSS0lta+Y2kXKWmHtfDA9zduylFDr5Bb33UT/PfXqQvNhzU4ZwiVbdKUM/BQzXjllm6dVJnz3drRnTVDb//vUZes1z//nyD0rIO6cjJMpVXOxUSFqHo+NZK7NNHyeZJuu07I9XDU421emJH3Kq33+mpN99couXpB3WkoFxVF73yXIi6X/2A/p00Rh99aNOy1L06cLxYZc5IJXTtrqHjxuqmO6fp8u6R2tPIWtURPcbJ8l6Srl+0VJ8u3aotO3OUe6pCNZHRatstUcPGJOvamwxNMp3HwVKwHK/6umvalK56ff/R0/8SMTZZk2I9PKSe8O5jNPe9frp24deav2SLMnbn6sSpSoVEx6hjoknDx6bo+psnK6Vr4N70wXHsfT9WfcbH54nmMCbQssSFVWtSfK6WF3VWjdM3Gb+hIU5Nis9VXFj9MkTNX1Tvyfr9h4N148Kl+nz5Nm3edVwniipUExWt9t1NGjE2RTfcZmhMl4v7Ho7sNVG/+2CgbvjvV/pseaa2fpOrE0WVCo2OUyfTZRo1cYJuvWWcBiR4L5sW0mGY5rz9R1395Vf6z5cZ2rTruPJOVSksJl5d+/TR2KmGbp99HtdFjhqFD7heb3zUV5+98z/9N9Wug0dPqTqqjUyDhuiqm6/VHeYu3jNs/ILP+ouHz/pgGhO4+EKcTuelUPsCAICgMG/lvNNlJuZOnhvo7qCJCgoKtGXLFiUkJCgqYo/3B5zhw5Pe66Z7cnu7gxf0eAAA/Cknt4MSEhI0fPjwQHflkuGv60e73a4DBw6oV69eKivZ2KjH5FRFaVVRxwvOkIkKcWhSfK46R1zEBbgRfIqtus94Q2mS1He2PvvPbPUKdJ8AuBUdm3z6c8NkMgW6O5ckf68gBgAA0KJ0CGv6apgX8lgAAIAL1TmiQtPbHFPHiKZfk3SMqNT0NscIxOBsTom7wQG0dJQpAwAA8KEr2xzTocoYbS5JUJGzcZda8SHVGhFboMRLZnFbAADQXMWFVeuq1keVXRmjjJIEFdU0roROfGiVRsYWqAfXMwAANIhgDIAms9qtstltMkyGzCZzoLsDAEEjMbJUiZGlyq+O0KGqGOVWRqnYGX665EdUiENxIdXqGFmhxIhStQ2vCnCPAQAAztYjslQ9Ikt1sjpSh6qilVvVSiU14Sqrqb2eiQ51KDa0Wh0jypUYUaZ24WT4AgDgCcEYAE1ms9tO1zYmGAPUMkyGLIZFhskIdFcQBNqGV6lteKF0fmuYAwAABI124ZW1gZbowkB3BQCAZo1gDAAAPmQ2mQlOAgAAAAAA4CwEYwAAAAAAAAD4VpxZ/0jnRjUAqBMa6A4AAAAAAAAAAABcysiMAQDAh6x2q2x2mwyTQbkyAAAAeMWagwAAtAxkxgAA4EM2u00Wm0U2uy3QXQEAAEAzYDaZNXfyXG7kAQDgEkcwBgAAAAAAAAAAwI8IxgAAAAAAAAAAAPgRa8YAAAAAAAAECGsOAgDQMpAZAwAAAAAAECCsOQgAQMtAMAYAAAAAAAAAAMCPCMYAaDLDZMhiWGSYjEB3BQAAAAAAAACCFmvGAGgys8lMTWMAAAAAAAAA8ILMGAAAAAAAAAAAAD8iGAMAAAAAAAAAAOBHlCkD0GRWu1U2u02GyaBcGQAAAAAAAAC4QTAGQJPZ7DZZbBZZDAvBGMDFMBmyGBYZJiPQXYGPPP3Mp4HuAgAAQePee+8NdBfQBFzPAAC8efbZ5EB34ZJHMAYAAB8ym8wEJwEAAAAAAHAWgjEAAABuFBQUcAcwAABo1g4cOMD1DADAqwMHDgS6C5e80EB3AAAAAAAAAAAA4FJGZgwAAD5ktVtls9tkmAzKlTVjCQkJMgzW/QGCxbvvbtVNNw1UTExEoLsCAD7nrzUHTSaTTCaTT/cJAACajswYAAB8yGa3yWKzyGa3BborAHBJKC2t0s9/vlR/+1t6oLsCAH5hNpk1d/JcbuQBAOASRzAGAAAAQND629/SlZNTohdeWKvS0qpAdwcAAAAAmoRgDAAAAICgVFpapRdeWCtJyskpITsGAAAAQLNFMAYAAABAUKrLiqlDdgyAS5HVbtW8lfNktVsD3RUAAOBHBGMAAAAABJ0zs2LqkB0D4FLEmoMAALQMBGMAAAAABJ36WTF1yI4BAAAA0BwRjAHQZIbJkMWwyDAZge4KAAC4hDSUFVOH7BgAAAAAzVF4oDsAoPkym8wym8yB7gYAALjEuMuKqfPCC2v1wAOjFRMTcRF7BQAAAABNR2YMAAAAgKDhKSumDtkxAAAAAJobgjEAAAAAgoa3rJg6rB0DAAAAoDkhGAOgyax2q+atnCer3RrorgAAgEtAY7Ji6pAdAwAAAKA5IRgDoMlsdpssNotsdluguwIEDcNkyGJYZJiMQHcFAJqdxmbF1CE7BgAAAEBzER7oDgAAcCkxm8wym8yB7gYANDvnkxVTpy47Zs6ccX7qFQAAAAD4BpkxAAAAAALufLNi6pAdAwAAAKA5IBgDAAAAIKCakhVTh7VjAAAAADQHBGMAAPAhq92qeSvnyWq3BrorANBsNDUrpg7ZMQCaM9YcBACgZSAYAwCAD9nsNllsFtnstkB3BQCahQvJiqlDdgyA5sxsMmvu5LmsOwgAwCWOYAwAAACAgLnQrJg6ZMcAAAAACGYEYwAAAAAEhC+yYuqQHQMAAAAgmBGMAQAAABAQvsqKqUN2DIDmiDUHAQBoGQjGAAAAALjofJkVU4fsGADNEWsOAgDQMhCMAQAAAHDR+Torpg7ZMQAAAACCEcEYAE1mmAxZDIsMkxHorgAAgGbEH1kxdciOAQAAABCMwgPdAQDNl9lkltlkDnQ3AABAMxMWFqr16+9pVNu//CVNL76YqkcfHatHHhnTqMdER0dcSPcAAAAAwOcIxgAAAAC4qKKiwtSrV0Kj2iYktDr9/8Y+BgAAAACCDWXKAAAAAAAAAAAA/IjMGABNZrVbZbPbZJgMypUBAAAAAAAAgBtkxgBoMpvdJovNIpvdFuiuAEHDMBmyGBYZJiPQXQEAAAAAAECQIDMGAAAfMpvMZIoBAAAAAADgLGTGAAAAAAAAAAAA+BHBGAAAAAAAAAAAAD+iTBkAAD5ktVtls9tkmAzKlQEAAMAr1hwEAKBlIDMGAAAfstltstgsstltge4KAAAAmgGzyay5k+dyIw8AAJc4gjEAAAAAAAAAAAB+RDAGAAAAAAAAAADAj1gzBgAAAAAAIEBYcxAAgJaBzBgAAAAAAIAAYc1BAABaBoIxAAAAAAAAAAAAfkQwBkCTGSZDFsMiw2QEuisAAAAAAAAAELRYMwZAk5lNZmoaAwAAAAAAAIAXZMYAAAAAAAAAAAD4EcEYAAAAAAAAAAAAP6JMGYAms9qtstltMkwG5coAAAAAAAAAwA0yYwA0mc1uk8Vmkc1uC3RXgKBhmAxZDIsMkxHorgAAAAAAACBIkBkDAIAPmU1mMsUAAAAAAABwFjJjAAAAAAAAAAAA/IhgDAAAAAAAAAAAgB9RpgwAAB+y2q2y2W0yTAblygAAAOAVaw4CANAykBkDAIAP2ew2WWwW2ey2QHcFAAAAzYDZZNbcyXO5kQcAgEscwRgAAAAAAAAAAAA/IhgDAAAAAAAAAADgR6wZAwAAAAAAECCsOQgAQMtAZgwAAAAAAECAsOYgAAAtA8EYAAAAAAAAAAAAPyIYA6DJDJMhi2GRYTIC3RUAAAAAAAAACFqsGQOgycwmMzWNAQAAAAAAAMALMmMAAAAAAAAAAAD8iGAMAAAAAAAAAACAH1GmDECTWe1W2ew2GSaDcmUAAAAAAAAA4AaZMQCazGa3yWKzyGa3BborQNAwTIYshkWGyQh0VwAAAAAAABAkyIwBAMCHzCYzmWIAAAAAAAA4C5kxAAAAAAAAAAAAfkQwBgAAAAAAAAAAwI8oUwYAgA9Z7VbZ7DYZJoNyZQAAAPCKNQcBAGgZyIwBAMCHbHabLDaLbHZboLsCAACAZsBsMmvu5LncyAMAwCWOYAwAAAAAAAAAAIAfEYwBAAAAAAAAAADwI9aMAQAAAAAACBDWHAQAoGUgMwYAAAAAACBAWHMQAICWgWAMAAAAAAAAAACAHxGMAdBkhsmQxbDIMBmB7goAAAAAAAAABC3WjAHQZGaTmZrGAAAAAAAAAOAFmTEAAAAAAAAAAAB+RDAGAAAAAAAAAADAjyhTBqDJrHarbHabDJNBuTIAAAAAAAAAcIPMGABNZrPbZLFZZLPbAt0VIGgYJkMWwyLDZAS6KwAAAAAAAAgSZMYAAOBDZpOZTDEAAAAAAACchcwYAAAAAAAAAAAAPyIYAwAAAAAAAAAA4EeUKQMAwIesdqtsdpsMk0G5MgAAAHjFmoMAALQMZMYAAOBDNrtNFptFNrst0F0BAABAM2A2mTV38lxu5AEA4BJHMAYAAAAAAAAAAMCPCMYAAAAAAAAAAAD4EWvGAAAAAAAABAhrDgIA0DKQGQMAAAAAABAgrDkIAEDLQDAGAAAAAAAAAADAjwjGAGgyw2TIYlhkmIxAdwUAAAAAAAAAghZrxgBoMrPJTE1jAAAAAAAAAPCCzBgAAAAAAAAAAAA/IhgDAAAAAAAAAADgR5QpA9BkVrtVNrtNhsmgXBkAAAAAAAAAuEFmDIAms9ltstgsstltge4KEDQMkyGLYZFhMgLdFQAAAAAAAAQJMmMAAPAhs8lMphgAAAAAAADOQmYMAAAAAAAAAACAHxGMAQAAAAAAAAAA8CPKlAEA4ENWu1U2u02GyaBcGQAAALxizUEAAFoGMmMAAPAhm90mi80im90W6K4AAACgGTCbzJo7eS438gAAcIkjGAMAAAAAAAAAAOBHBGMAAAAABC3DMMliMWQYpkB3BQAAAACajDVjAACAXxQUFGjLli2B7gaAZi4kRDKbJemAbLYDge4OgGYuISFBw4cPD3Q3zsKagwAAtAxkxgAAAAAAAAQIaw4CANAykBkDAAD8KiEhQVERewLdDQAA0MLl5HYIdBcAAEALRmYMgCYzTIYshkWGyQh0VwAAAAAAAAAgaJEZA6DJzCYzNY0BAAAAAAAAwAsyYwAAAAAAAAAAAPyIYAwAAAAAAAAAAIAfUaYMQJNZ7VbZ7DYZJoNyZQAAAAAAAADgBpkxAJrMZrfJYrPIZrcFuitA0DBMhiyGRYbJCHRXAAAAAAAAECTIjAEAwIfMJjOZYgAAAAAAADgLmTEAAAAAAAAAAAB+RDAGAAAAAAAAAADAjyhTBgCAD1ntVtnsNhkmg3JlAAAA8Io1BwEAaBnIjAEAwIdsdpssNotsdluguwIAAIBmwGwya+7kudzIAwDAJY5gDAAAAAAAAAAAgB8RjAEAAAAAAAAAAPAj1owBAAAAAAAIENYcBACgZSAzBgAAAAAAIEBYcxAAgJaBYAwAAAAAAAAAAIAfEYwB0GSGyZDFsMgwGYHuCgAAAAAAAAAELdaMAdBkZpOZmsYA/C6/OkKHqmKUWxmlYme4KpxhkqSoEIfiQqrVMbJCiRGlahteFeCeAgAAAAAANIxgDAAACEqHKmO0uSRBRc6GL1eqneEqUbhyylops6yN4kOqNSK2QImRpRe5p4F17H2LZvxpz+mfI6c8KNsfxquVtwcWW3Wf8YbSJKnPbH360Wxd5sd+Nll2ut5cZFeVpOhBE3X3pE6B7lFwu4DjlfHHh3XPB/mun8JlfupV/fmamHMb7vlU37n1Ux2o+3n4XVr61nS1v8CuNx/l+uyhH+mpde5bjJjzV719R7vz2Geu3r7rMf11x/n1JHLGY0r97ejze9Cl6ELOE2eeCxsSGqHY1vHqfFlvJU+coJtvSlHfuBAfdBoAAAAtDcEYAAAQdJYUdlGeI/K8HlPkDNeq4g7qEFapK9sc81PPgk2Z1qfuP+tfKjdmaUvNeI29VIrRZmfozdesKpPU5sb+BGO88cHxiogIV1VVtdYt26SSayYqtt7vD9g21gZiIsIVUVUtctIQcP48T9RUqaTgpPZlnNS+jI36+N1++sEzP9VD49uKkAwAAADOB8EYAE1mtVtls9tkmAzKlQHwqfMNxPjqsc1O9XalbnJIkmJjo1VSUiYVZSl1lzR2YID7hmarz4Be2rttjyrWb9CqkomaflY05oRs1oOSpNYDeilh2x4dDEgvAylcfadM1531UslKdqZqwab8hh9yXjpo3C3J6tOIb2phAwlO+lSbPpp1TT+1OfPfHJUqzDmkjA3f6HCJU87Cb/TWY8+r5u+/0SMjogPVUwAAADRDBGMANJnNbpPFZpHFsBCMAVwMkyGLYZFhMgLdlWanuCxEcdHOoN9nUNm6XWlltZvDp4/XgfnLdUS5Sk3LkQZ2Dmzf0GyVDeyncbv2aFXFVi1dXa7pV59R9C53o1bskKQYTR2eqKXb9rjbzSUsXENvvEtD6/1rzgf7fBSM6aYZD9+l6xqoEAc/6zBc98xpuGRjTeEe/evJP+vF9YVSVbb++cxCzfjPzep/qWQhAgAAwO+4dAQAwIfMJrPmTp5LgPI8VVZJ+4/5/rJk39FQVV7CNZR2p2bqpCSpiwZ/Z7iGuubMd6Zlqeh8dhQiyu3gtJzSy3TVuAhJVVqzdLPKz/jdSesmbXNKih+tyb2LVBygPgIXW2ibvrr7hft1fYfan537VmjB5ks42A8AAACfIzMGAAAEnD0nVNUO3+/XUVO7776JNY0ONmSXH9Ge0v0qdBRLzhrFh8fL1Kq7+kT3UkhIMIUsCrQh7XDtZnx/jUxKUvvB0lcrGjZfAAAgAElEQVTpUs3mLG2snKopja3YFhKqUEmOEzv1n9cW6vPVu2XPq1RYXFv1HDxE02+5VrdN7KQorzuqUd7W1fr3/HVau/mgDuUVq7jcIWdYhOJat5Np0EBNueFq3Ta1xznrkEiSNr+naT9c7Aownatw/u81cn7Dv3O3kPmRf83VNS/ulSRNsryhv17j0I5FX+j1TzZp+4E8nawKV7vuJo2aNFF3fXeSBiU0IihYfETW/y7XIusOZe49rhNFlQqNjlG7bj01NGWUrrvFrAmJ3o+WJKmqQJsXLdWny7Zq865jyiusUE1k9Ol9XXuzoYk93ZRC8sPxkqTyvAqlXDNMESvTVb42VavLx+mKVpJUKpttp2okxZvHqFfBpw3vvGaP/nCtRe8fk6QYXfviK3pqUoTbQ6Dyjfr5FS9qSZmkkL762SKL7miw+tYFjq+zOFW0e63++Y5VKzbZdSS/UiHx7dV3xCjd+MMbdN3AWK2a+0M9srBCUpxufe3v+mXDhyu41OzQM1c9o0/yJUWN1nPLHtNVHitp5etf339Yf9omSb01Z+FTuqurm6ZVBcpY+LXmL92izbtylVdUqdCYeHXu1VujJ47XrbeMVb94D+fIYqvuM95QmiT1ma1PP5qtrgfT9c5rX+rrNLsOF1YrMr6deg0dqum3XqObx3VUg6cwP437RokZqptmdNTn/8qVdEqbNh+TRrk5YD44T/j+/OXL95AufEz45TUCAAAEL4IxAAAgoApKQlRc7r8gR3F5iApLQpQQ6/0O5oPlh7WxcMtZ/1ZYdUpbq07J6XSqX2xvf3Xz/JVkan1W7WbYiAEaHhqn9iO7S+mHpfIsrd/q1JTkRh7XsFCFHFqpx+55XatOnHGcCnK1c80K7VyzVovvfEx/f3zI2WspnKVMm//xgh5+fbeK6x9qR5WK83OUtSZHWWtW6ZMpd+uVZ6eq90Vf3qdMG/78vB78IPuMRecrlbN3h77cu0OLP1+rx156VN8d6G722qn89M/0819+ro0n60UPi4t0ZHeWjuzO0lcff6VpTzyqZ27s6TGAVZ29Xs888boW7Kk4+xdVxTr6zXYd/Wa7vv7oS016+Kf63V19Gjc56gsnT6ly8liNj0zXyvKtWrKmQldMi5JKNsu60SEpRlOmDVVB2lsNPz60r66b1V3vv3FYUqlWfLlFFZOS3R6L8nWpWu0qtxc2cryubjAQ48vx5ZD9i5d139MblHPmnzE/R9tWfKltKzcq4wWLprp7eDALTdJUc5w++axYqsjUivWVuspTVDZ/k2yu84gGJGuKm7hC9eE0PTvnH/rsm3pj9VS+DmxN14Gt6fr0w6X68e8f0QPJ8Y3qas2h5Xr0u28p9Yz0qsr8HGWuzFHmyjVa9L1H9bdHBqt1o/Z28fTo0VlSriQpP79IUv2D5tvzxLcu9Pzl23O0P8bEhb9GAACA4EYwBgAAH7LarbLZbTJMBqXKGulonve7XB01NTqelanjO7er5MRxVZeUK6JNvOLad1SnwUPUuV+S5CFr5WheqBJivafe7CurXYp8WPwg9YnuJUnaW3ZAW4u2a2/5waAKxlSnZ2qT6yUNHD1QMZL6jR6g1m8c1ikVKy0tW0ru2bidhZXof899rlUFseo3foiGJsbJeSpXmWmZ+ibfIalCO9//qyxJz+nP17RtcBdl6z/Qz17b7SpbFaI4U5LGDO6qTglRCq0uU559j9ZuOKziGoeOrXhbj77UXZ/MSTr7zvd2vTV91qSzS6zlfqNFqcfkkBRpGqqrhyY0+Pzhw9t7fZnOHV/oqf9kq6ZNd40f2089EkJ06tBepaYeVL5DcuZn6U+PvqXEjx7UlAaiTtXfLNRDP/1U2111u8Liu2tUskmJ7Vup6uQJ7c/aoaycSqnyuJb97jlFtXtOz0yJa7gzRdv07IOvasHhGtcLaK3+KYM0KDFGjhN52pu1S9tzKqTqE1r15+f0RPTT+tuN9dYB8tfxKihSQdxVump8hFbaKrR62TZVTktWzfpNSq2SFD9KV44LU+7CU2530f+6yRrw5ofa6ZSKV67V6vJkTWvVUMsqrVu6WbWxmFAlTx+nhnrmk/HlUr1zgeb89oxATKv2GjZuoJI6Raki95A2pu7S50//RzFj3B+i4BWqlCmjFfeZTcWq0BprpqqnjHL7pa9oVYY2u4Zg/6kp6t5goyw9/+DL+iy7tmFIXGcNH25Sz86xqj6Zq71Zu7Qrt0rO/J167dE/KPrtX+v7/bx9zSzW57//QqmlMeo9dqiG9YxX6Knj2rI+U3sLaySVafu7f5Gl3/P608x6Y9jP5wlvyiu+DT5ERZyb8eXT88QZLvT85cv3kH/GxIW/xuaMNQcBAGgZCMYAAOBDNrtNFptFFsNCMKYRSitCVO5lTZeK0lJt/3y+io4cPevfqwqLlF9YpPx9+5SX1F+DZ93gdh/lVbXPFRPlOTumuLpEkmSKTjwd27ksuqe2Fm1XmaPM+wu6iLalZalUktRRKckdJUkhwwZpdOQyraiUDqRl6vhPeqrBJIP6SjZrad4Q/fqDBzS77xkz5uWH9emvntdvV5yQU6WyvvaVds68TQPOiXtVadVna5QnSQpT79t/rnfmDFb96jRFWQv00P2faGupU9mfLNSSe5N0zZk3TPecoJ/Nm3D2g9a+oaWpx1QmKTr5Gj315JDGvKIGbVm0RjHmH+jfT09T3zMWRy/bZ9WTD74p63GnlLdOL71/rcw/6VmvtF2pFr+6wDXBGqH+tzyovzyerC5nzsVWFyrj/b/r8b9uU4GzUIv+vFDfnXKbBpzTkxplvf2uPnMFYsJ7TdazL/5AV/Y4Y2dV+Up97SU9/tZulapU6//6by296hFdcTGOV/4pnVS0jCuHKdKWrtI16drgGC2t3aYKSXHGGI2NKNLHJzwEOLtP1PWjPtLOdIdUlqFFtjJNu7qBu9krt2lJXVpM+GDNuLKhGVYfjS9JUpmWvblYe6trf4rsd7VefPkOje8QdrqFI3+7Xn7kH1qU4ekgBa/wMcmaHGfTomKpaNUmpTtGaWxYQy0rtHpllmr/it01rcG0GKd2vvuuPnZNuncyf1cv/uYqDWxzxsGvyNXqf7yqX/7zG5WU7dXf/2jVNX+/Qh09dbJsm1btG6gn/vWw7hxwxrgosev9//e8/rCmUFKpVrz2lXbNvFVJZz7Wz+cJz8qUnn7QtR2ixB71X6UvzxNnu7Dzly/fQ34aExf8Gps3s8nMdSMAAC0AwRgAABAwp0o8T6U4HA7t+PRjFeXkKK5jO3UfN1EJXRMVFR+niuJiFR7O1qHUNerQ39s0Vu1zeQvGVDtrI0MRId9eIoWF1GbuOJ3BtFDzYa1Pza/djBukMXUzla0GaczQEK1Id0rbs5RaNFPXNqY6zIFCDX7xKc3uW69YTqvumv30Pcq49gUtzJd0KEOrDtymAZfV30GeDtgrXduXafb3zp3kk6T4wddp3u/itP5wjaRW6lZ5bht/KooYrd//dpr61osJRPc265knd+maR1epQNL+5Wna/5OeOjsPKk8lccM0baqkiH66u/4EqySFt9HIu+/Xvasf0vObnNLhDK3a39Dx2qdFX7qCiyHddc/vf6Qre9TLEItoq7EP/lSPZT2uZ1IrpeIMLV5boSuubuRaNBeiqkRF5VLc5LEaH5UuW/FmrczYo/B1JZKiZZ42VBHK1Sn3iTGS2mjmdcP05/QMVapKaxanq/jqiap//39V6gatcpWpihw/QVMbrEnlw/Hl2CHbOlfwJ6SL7vjN7WcFYiQprO0gPfLcTGXc8C8d9/QS/eaIvnzpPe328k2t3dhrdM/EBjLVIoZo2uXRWvRVmVS4SdbNTo0d3cABq8yULdUVDe+VrKkNJv7t1cKFdWtTjdHP512tgfX/iFEdNfGnD+m+TY/qT9ucqtiwWktyr9AdnmbejxSo/3Pzzg7ESFKsSXc+e7cyZv1Vy4okZW/RukO3KinRw74uoqL0T/TaSldmTFgfTZxQ/2D48jxR77kv8Pzlu3O0n8bEBb9GAACA4EcwBgAABEyxl2STnMytOpWTo+jOnTTs1jsUHvFtwZSouDh1Shqojv2SFBLqvdSZt+eSpGAKt3iUl6nUfbWb4cmDNOL0y4/XmJREKT1bcuxU6iaHrjUavCX+bLEjddXlbib5o4fpysujtXBhmaQj2nfAKV3mKYgWIvd/jlD1mniFennvkV+0nXq5JrhZaiBm4gQZ8av0eZGkA9na45B6n3XoeurWpx/RrV6fpY3692stbSqUlKcjRyXVn2TN26usuln+3mM1vZ+7A5agqea+eiZ1u6Rq7d2bI6mRpecuSIlOFUnqOEpXjo+QzVqkle98ppgcSXEjdeW4CEmlKvIYjJFaX2HI/HyGvi6RKtau1fJTE3XdWcEWh9YtTXeVTYrQxBnJ8h47vMDxlXNMB+rOBd1G6+pBbr4OdZ2gq4f9S1s2ee2QH+Rp/UeLtd5Lq17RkxsOxihCE6YOU6uvUlWuU1ph/Ua/GN3/nFaODZu0pja9Tj3MKerb0JOc2PftWB04WGPcVtNqr3HjuknbDks6oB07JI9pEK2Ga7o5puHfxY3UFclhWrbCISlPhw9LCmQwpqZKxccPa+PX/9NL/1gnu6usW6frZmt25/qNfXieqOfCzl9nusD3kL/GhHz5GgEAAIITwRgAABAwldWeM2NytmdKkvpebpwViDlTYwIxjXkuSaqf/PJpziKPP9c3u/PMRvXlQpWmbVema3vo6EE6cymO3smD1F7ZOqEKpW3YIxlJDe3ibB3bq4vbwxiiLp0TJJVJcqq4qFxS/dmyTurbO0r6pkLSHn341zWa8MvLZXIz1xoo3bt7KNoW0kHdukgqkuQsUWGRpIaXnfAqNKzuYFapsqE7ywtKVFi33bmdunjYV7tbnlTGLU3rR9OVqaRYUsdWMl85XJHWjTq2bqskKW7SWI2PlKQSFRV72oekViN13ZXx+npBkVSdpS+XntJ1s8+IxjiytMzmigZEj9TMye4W5fbh+CopVUnddvdOHub449W1c4QkL3UUg1SrCSkaH5WqFRVSji1dO+f0r1cGy6n0VZtdgbD2mjrNzfR7frEKXJvRndp5DJa1bh3r2qpWYWG5pAYXCarVuZMS3X4TjVCnzvGSCiRVqOxiVojc+6lmj/7Ua7O4ITfqT08M8/QKvfJ6nqjnws5fPnwP+WtM6OKdo4MRaw4CANAyEIwBAAABU1Xt+fclJ3IlSfGJDS4r7dPnkqSQkHMDMsGnRhtTd7jWeeiqlJR6d8YPHaTk6K/0VZmUm5al/UrydsO1FBYqTyGt0LBvbz+ucTR0gMI08ZYp6vb1Yh1xOpX9v79p9vJ/q9+wfhrcN1F9+iSqT3+TBvXtrPhz17u+aMLDPd1GHa+BUyfp2iRJ6iqTm6Zl2Zv1yQcrtCR1jw7kFKu43HH+GVU1Dp1ebcXLsQ+MSpW7KjHFTpqgaR12am2VJEXpiquHqfZPWKXycm/7CdP46y5XpwWLdVwObVicqpOzr1Q7128daWmyulZhj5s8QRPdxWJ8Ob6czm//XlER8tT828nyi22Y5q36ua67kGBmzHBNHRuhFSurpMObtOKb2zWg35kN9sm20hUS7JSiaQPd7OeMsVq28I8aubBxT++orvHcIDzc4xfRkNC64LkzuDIWW7XXmNm36/8eGqeeHioG+uQ8Uc+Fnb98+B7y15iQb87RzRVrDgIA0DIQjAEAAEHvYk3HfafTjIvyPBdmn9LSXNkEbQcqpX5tofCBGjM8VF+tr5H2Zio1b7Yu6+D/XkWOuFUv/bpQjz2/TgfLpZqyfO1KTdOu1LTTbUJi2mvY5Mm664czdUVvtzPvARKnSffep0luf+9Uzoo39cCvrNrvNQjR3FWrqi4hJHaMnv1qTANNqlTViLdl6PDJmmVarLfskiNjrb46fqVu7yRJNUpdlq7aSmcxmjJjuDythtP8x9fFFi1jymCFrdwsh47KZjuiB/p1+/bXuzdpVU7tZqepyRpyKa2EfiHa9NGsa/qpzRn/5AwJV2zr1up8WW8lp/STqbWnKECgzhPezl+XwnvI+2sEAAAIdgRjADSZYTJkMSwyTEaguwKgmYoIlyo8VAGKbd9RRUeO6tTBQ2rfp88FP9cl4UCm1tfV629drM3vLdL2ek1yHDGSiiXtVeqGct0240KK6TRWhHpf/6DmT5yhJV+skTV1pzJ3HtHRU1WnQ2nO0hPasvgzbVm+Vjc8+yvNndLQehdB6uBXeuL/rNrvyhiJ7NRb40ea1K191DmZLcc3WrVkd3OO2FSr2lt1rmqHGpFsJqmnrr+ul9566YBUs0eLl+Tp9js7SI4dWlaXFtMmWTPGe7sd/xIfX34QbyRrdNhmpTmkXdZNOvKjbqoLx+xbmaHs2laaMjVJjYnFhF82WreO97Loh0uvvs30hNthuO6ZM9t7NqE7QX2e8P17qEWMCQAAAB/iighAk5lNZtLoAVyQyHCnKqrcTwN2TBqkoiNHtXfVcrVOTFRE1Ln3zlcUnVJoWLgiYjzX9IkMD6piN012IjVTe+t+sKfplRfTPLR2aGPaTjlmjNDFqugS3r63Zny/t2Z8X5JqVH4yV/Z9B7UlfbO+nL9am084pMocLZj3ri5PfkRXeF+xPQg4teHDL5TpmmBtZ/6R3nnGrB5uYlwZf0xt5sEYp2q8vV1qauS96FCtntcYGvnqAWU4nNr65TodvvNaddm0QSvya3/f7ooJGtPIbyWX5vjykzajNW3kW0rbWCPt3Cjr8Vm6o5Mk5Wml9WBtm4TRmjqicWkxEYPNemLOSL91t/lrHucJX76HGBMAAADnJ/hKVAMAgBYjzksVlG7DRyq6YyeVn8hX+rtv61hWpiqKiuWsqVHpyRPK3pSu9Pf/qczP56u6yvOt/N6eq3mo0Pq0Pef1iOK0TO3w1sjheWK9xnF6hROFhp5PPaNQtWrXWUnJKbrlvh/r7fm/0C09XI8vytCS1OayOPoxZWS41tdQL909x/0Ea6OEhn0bHPNy7FXjUGVFlSoqqlTZ4Ho9zUDHy3XdOFfmy471WnrYqS3WdNXGYtro6umDmhgsbML4Cgn5NgukokqeRmCNo7HhpmAVrylT+te+XudeWa2uMZy3SbadtZutjRSN9nTwzxirlRVVjQ7AtUw+Pk9cFE14DzEmAAAAmoxgDAAACJjWsZ4nl0PDQjXsOzcpunMnVZ46pd2LFyn1tVe16s9/0Ma339T+FctUXVKm+E6dFRbmeTrX23M1C45dSkt3FYeKn6xXN7ynjPSG/ntNvxnvusw7tl1pB73sN++EjrmdUXPqWE6BaztEsfEXMLsYP0i3zerp+qFaR44UeGwePIpV4MriUFhHdevsqa1TBQWlnneXEPvtmhTHTyrHQ9MTH/9OYyf8QOMm/EC3vebtDxmsYnTVdaNUGw+1a9XqLVq12nVAO43XjJE++krSmPEVG6PYuu3Dx3XI7c6KdDSnuQQL3es4NVmDa6Mx2rQqQ0WSCldt1jandHpdGU87aBunBNem41COjvm3u82cj88TgdCY9xBjAgAAoMkIxgBoMqvdqnkr58lqtwa6KwCaqZgop1p5WSoiKj5Oo2//nnpPmab4bl0VGhWu0PAwRbZroy6Dh2jYbXeo77SrFBLq/rKmVUTtczV7OzKV6lpmI3zUII1w+5JjlJLSy7WdrdS0Is/7Lc7QkrUVDf+ufKuWrilz/dBVl5kayIw5nKYXn35D855+Q09/sEueCu+UlX7726ioSM/9kqSI8NN1das8LTDkV9GKi3NtOrK1a6+HsZSfqv+ucnMs63Too8F1yyzs3aCv3e4vX8usdUXpItSnTxfvXQ2K43WuGGOyrnRFoLZ+MV9rXVGQ7leP11BvyVa+HF+du+qyuoqGRzZpyQ7HuW0k6dg6LdnqpV/1tDrj+YqLg2SivVOKrhhYu+lI36z15RVas3qHHJIUM0JTx3qpD9e+twZ3cm1/k6aldndjtUifP/Gwpl35oKZd+Su9vts33W+0oBj3Pj5P+JIv30PNZUwAAAAEIYIxAJrMZrfJYrPIZrcFuitA0DBMhiyGRYbJCHRXmo2uHbwXOQkNC1XiqNEaeft3NfGhxzXxkTka94P71H/6TCV0T/TJczQHB1IzT2dRDEkeJE+V1xJTBql26t6pLalZ8jjt19op67N/04J99VqVH9Xnv3lLC+vu9u4+UpN7N/D4hBrZF1u1YIFVn/7lLf15TYEamuIu27dEL39W9wraasDANg20qqdzO3V1bZZuyVJmpfeH+F43DRtel09xTO899aFSc+svX1+t45uXa+4Dryszytvr6q2ZM12BFWe23nzyHVmP1ttfVb5SX3lJf0lzTSzHj9T0CeeumXSOoDheDYgYputntJMkVe3Yr9p52c6aPqOP98f6cnyFDdDkca53jvOo3nvqQ6WdOPv84MjfqZd/+V8daR977uM9aG3qcjpjYP+yNdpxEefa3WuvKVNdgdmKLK1Zv1WrXGMq+vIUjfcaD+2jWbO61W5W79cbTy/QtlP1Jt+dFdr98Rt62ZqvkycLdTKsj0Y1dJ7wp6AY974+T/iQT8/RzWRMAAAABKFGLpUJAAAaw2wyy2wyB7obzUpCrFNxrZwqLj+ftUgaL66VUwmXQokyFSs1Ndu13UUpKe08N08aqJT4hfqiSKrYmKktNeM0xt1tOB2Ha1LEOs277VF9OHaIhiTGSqdylZmaqd35dVN2MTLuna6BDf2ZYpP1g1u6auW7R1VTfVgf/fRxrRw6VKP6tlPb6DDVVBTr+GG70jdkq8C1u/CBV+nmoY142T1Hydz7Y+3e55SyF+u+mw9o3NCOij2rtlKoht/+Y904oBH7a5JQTbjzGiX97yPtqpbKdyzS/dev1+DkvurTJU7OgpM6Yt+vLXsKVd1qsO6cWaj3Py30uL/B3/+eblj6By04XKPKPcv02Hc2KmnMIA3uHqPqE3nam7lTWTl1s/kxGvfwrZoW52GXdYLieDUkRKOum6ge//6v6kaxeo3XjKRGPNSn4yta0344XX1sn2mvQ6rcvVj3Xb9RI8YNVL+OUarMO6T01F06FDJOd5iz9MHC83iFIydrVuJSvXdIcuz5QvfcskdTxvRUu1bnvmmih0/Tg1d0bWAvknREX770nnY34pta2EBDj83s4bFNzynJ6vPyAe1VmVa/Ol9VpZIUocunDpP38F6IBtx9t25e8pw+zq5RUcZ83T1rlUaMSVLfjpGqKiyQPWu7Nh8qU+1ZNk5THr1Boy/2t8ygGPe+Pk/4kE/fQ81kTAAAAAQhLokAAEDAmTrXaGd205bw9iQstHbfTTW780wf9uYClWdq/TZXUKnNIKX09dI+bIDGjAzTFysd0qkspe6WxridhOyiu568Ufvu/0Tb167TudVkopR058OyzGrr5vHhGvaTx/Xro8/r2SW5qlKljm1L16JtDbeO6jFB856/Rg1VPDtXor73f7O04sEv9E25VHpop5Yf2lmvTagcU/wbXAjtc63++NRhPWBZo+xKSRUnlbUmTVlnNorqqht+e6+u3/2C3ve2w9bD9OQrP5Hzidf1+Z4KqapQu9as06767cLba9LDP9XvbvS4AMUZguN4NSjJ0LX9/6tXXQOs/4zxakRejHw9vsIH3KA//Cpb9/92o3IcksrytHnFKm2uaxDWXjOevUOTUn+pD87n9YX11k+evVmbH/xYmUVS+aEd+vLQjgabtqkY4SEYk6f1Hy3W+kY8ZeSMgV6DMf+fvXsPbKq+/z/+6p2WFsqlVK7hfpEBAuV+OQHkJop38bb51W3q5hQV52/ffbcRdDov07k53XTi/TavKIioXBJuUqCUq9wv4V7KrbT0lqb5/dEGS2nTNE2ahD4f/5C2JyfvhHM+n08+789FHQdpbKdPtHuvdGJ3+fpwsX00doSX+z8l9tajL/1Gjodf0ZxdRXKdPabMJceUWfm4uFRNmPGgZk2qrpwIpNC47v1eTviNn8vosLgmAAAAQg/JGAAAEHSxMVLn1v5fSqxz61LF1rAnTbgoXb9Fa8uX3okdeKn61pjIiNOgQZ2lpTslZSs9/Zju79mq2qNje1+j1z/qpk/fmK+5a/brUFauSholq0PvPpp805WaNipVHrtuY1rrmqeeUv8pi/XhF2u0estBHT5ZoMISlyKiYhSf1ETtunRRmnmUbr62v9p7WmOtksaXTdMbb3bQ7NnfaXHGfh0+XShHva88F6G2E3+lD3sM1kcf2LQofbf2HctTgStWya3bqs/QIbrhtnEa0TZWu7zcGyGm/VBZ3u2hq+cv1GcLN2rDtixlnylSaWy8mrVpp76D03TVDYZGmWrxYSlUPq+qRCs2JkKSS1IHTZ7Y1vun+vX6ilLHqdP1UY8Veustq6wZ+3Uox6n4linq1Gegpt01RRO6JWjl97WfURff+2rNfq+j3n/jGy1YuUv24wUqdAZ7Zl5bjRvTWv/Ze+Tcb2KGpGlULVZhi247WDPf7aar5n2rT7/boMwd2TpxplgR8QlKaWdSvyGDdPWNozWodfAK3NC47v1fTviNn8vocLgmAAAAQk2Ey+UK9rcDAGFq1tJZstgsshgWzRw9M9jhACHBarfKZrfJMBkNfrmy06dPa8OGDUpOTlZczK5aPfeDkx3q9Nq3NN9fp+cDCIB9c3TD9Z9ot6SI3rdo/ttTyvc1Ck3LLL/QA3MLJSVq2qv/1u8GBjsiAHWVld1SycnJ6tevX7BDOQ/tRwAAGobqVg4HAAA+sNltstgsstltwQ4lrLWM8n335bo8F0DgbJ27XLslSRHqN2loSCdiJIkxawDqi9lk1szRM0nEAABwkWOZMgAAEHLGNz2qg8UJWn82Wbku75orSREluqzxabWLzQ9wdABqrXSHvpx/tOxxZHdNntAiuPEAAAAAQD0jGRBPV5MAACAASURBVAMAAEJSu9h8tYvN16mSGB10JCi7OE55rmgVuaIkSXERTiVGlCgltkjtYvLVLNoR5IgBVKdk9TJ9fazscVTacE1oGdx4AAAAAKC+kYwBAAAhrVm0Q82ic6Ta7WEOIGQ4tGxuunIkSVEaNmmIkoMcEQCEEvaMAQCgYWDPGAAAAACBk5ehudby5QNj+2rS2MTgxgMAIYY9BwEAaBiYGQMAAAAgcBKH6vkVQ4MdRa2NnjVbmbOCHQUAAACAiwUzYwD4zDAZshgWGSYj2KEAAAAAAAAAQMhiZgwAn5lNZtY0BgAAAAAAAIAaMDMGAAAAAAAAAAAggEjGAAAAAAAAAAAABBDLlAHwmdVulc1uk2EyWK4MAAAAAAAAAKrBzBgAPrPZbbLYLLLZbcEOBQgZhsmQxbDIMBnBDgUAAAAAAAAhgpkxAAD4kdlkZqYYAAAAAAAAzsPMGAAAAAAAAAAAgAAiGQMAAAAAAAAAABBALFMGAIAfWe1W2ew2GSaD5coAAABQI/YcBACgYWBmDAAAfmSz22SxWWSz24IdCgAAAMKA2WTWzNEzGcgDAMBFjmQMAAAAAAAAAABAAJGMAQAAAAAAAAAACCD2jAEAAAH3+BOfBTsEAADQwN19993BDqFK7DkIAEDDwMwYAAAAAACAIGHPQQAAGgZmxgAAgIA6ffp0yI5EBQAAAAAAqA/MjAHgM8NkyGJYZJiMYIcCAAAAAAAAACGLmTEAfGY2mVnTGEC1kpOTZRgka+HZO+9s1PXX91JCQkywQwEQ5ihPAAAAEMqYGQMAAICgyM936Le/Xah//zsj2KEACHOUJwAAAAh1JGMAAAAQFP/6V4ayss7qmWdWKj/fEexwAIQxyhMAAACEOpIxAHxmtVs1a+ksWe3WYIcCAAgz+fkOPfvsSklSVtZZRrMD8BnlCQAAAMIByRgAPrPZbbLYLLLZbcEOBQgZhsmQxbDIMLFXCuCJexS7G6PZAfiK8gQAAADhgGQMAAB+ZDaZNXP0TJlN5mCHAoSsiqPY3RjNDsAXlCcAAAAIFyRjAAAAUK8qj2J3YzQ7gNqiPAEAAEC4IBkDAACAelPVKHY3RrMDqA3KEwAAAIQTkjEAAPiR1W7VrKWzZLVbgx0KEJKqG8Xuxmh2AN6iPMHFgj0HAQBoGEjGAADgRza7TRabRTa7LdihACHH0yh2N0azA/AG5QkuJuw5CABAw0AyBgAAAPWiplHsboxmB1ATyhMAAACEG5IxAAAACDhvRrG7MZodgCeUJwAAAAhHJGMAAAAQcN6OYndjNDuA6lCe4GLDnoMAADQMJGMAAAAQULUZxe7GaHYAVaE8wcWIPQcBAGgYSMYAAAAgoGo7it2N0ewAKqM8AQAAQLgiGQPAZ4bJkMWwyDAZwQ4FABCifBnF7sZodgAVUZ4AAAAgnJGMAeAzs8msmaNnymwyBzsUAECI8nUUuxuj2QG4UZ4AAAAgnJGMAQAAQEDUZRS7G6PZAUiUJwAAAAh/JGMAAAAQEHUdxe7GaHYAlCcAAAAIdyRjAPjMardq1tJZstqtwQ4FABBi/DGK3Y3R7EDDRnkCAACAiwHJGAA+s9ltstgsstltwQ4FCBmGyZDFsMgwGcEOBQgqf41id2M0O9BwUZ4AAADgYkAyBgAAPzKbzJo5eqbMJnOwQwGCxp+j2N0YzQ40TJQnAAAAuFiQjAEAAIBf+XsUuxuj2YGGh/IEAAAAFwuSMQAAAPCbQIxid2M0O9CwUJ4AAADgYhId7AAAALiYWO1W2ew2GSaDpcrQIEVFRWrVqru8Ovbvf1+tF15I14MPDtH06YO9ek58fExdwgMQRihP0FCw5yAAAA0DyRgAAPzIZrfJYrPIYlhIxqBBiouLUseOyV4dm5zc6Ny/3j4HQMNBeYKGwmwy024EAKABYJkyAAAAAAAAAACAACIZAwAAAAAAAAAAEEAsUwYAAAAAABAk7DkIAEDDwMwYAAAAAACAIHHvOWiz24IdCgAACCCSMQAAAAAAAAAAAAFEMgaAzwyTIYthkWEygh0KAAAAAAAAAIQs9owB4DOzycyaxgAAAAAAAABQA2bGAAAAAAAAAAAABBDJGAAAAAAAAAAAgABimTIAPrParbLZbTJMBsuVAQAAAAAAAEA1mBkDwGc2u00Wm0U2uy3YoQAhwzAZshgWGSYj2KEAAAAAAAAgRDAzBgAAPzKbzMwUAwAAAAAAwHmYGQMAAAAAAAAAABBAJGMAAAAAAAAAAAACiGXKAADwI6vdKpvdJsNksFwZAAAAasSegwAANAzMjAEAwI9sdpssNotsdluwQwEAAEAYMJvMmjl6JgN5AAC4yJGMAQAAAAAAAAAACCCSMQAAAAAAAAAAAAHEnjEAAAAAAABBwp6DAAA0DMyMAQAAAAAACBL2HAQAoGEgGQMAAAAAAAAAABBAJGMA+MwwGbIYFhkmI9ihAAAAAAAAAEDIYs8YAD4zm8ysaQwAAAAAAAAANSAZAwAIGe7NS71VeZPTUHi+dZ/V6+cDKGO17jvvZ8MwyWw2BSkaAOHCarXLZrOXP95Xw9FA6KuqHenv9ioAAAgekjEAgJDh3rzUWxbDct6Xy1B4vtVOMgaoLavVLqvVfu5ni8UgGQOgRjabXRYLG57j4mG1Wy9oS/q7vQoAAIKHZAwAn7lHZTHaCv7i3oeoNseH6vPZSwmomWGYZLH8eK9YrfvOS8oAgDfMZpPM5o6SysoVINx4aoP6u70KAACCJ8LlcrmCHQSA8DRr6SxZbBZZDItmjp4Z7HAAAGFu1qylslhsslgMzZw5OtjhAAhxlBkAAAAIJ5HBDgAAAAAAAAAAAOBiRjIGAAAAAAAAAAAggNgzBgAQMtiHCAAAAKg72tUAAIQeZsYAAEKGzW6TxWaRzW4LdigAAABA2KJdDQBA6CEZAwAAAAAAAAAAEEAkYwAAAAAAAAAAAAKIZAwAAAAAAAAAAEAAkYwBAAAAAAAAAAAIIJIxAAAAAAAAAAAAAUQyBgAAAAAAAAAAIIBIxgDwmWEyZDEsMkxGsEMBAAAAAAAAgJAVHewAAIQvs8kss8kc7DAAAAAAAAAAIKQxMwYAAAAAAAAAACCASMYAAAAAAAAAAAAEEMuUAfCZ1W6VzW6TYTJYrgx+wT5EAAAAQN3RrgYAIPSQjAHgM5vdJovNIothIRkDv2AfIgAAAKDuaFcDABB6WKYMAAAAAAAAAAAggEjGAAAAAAAAAAAABBDLlAEAQgb7EAEAAAB1R7saAIDQw8wYAEDIcO9DZLPbgh0KAAAAELZoVwMAEHpIxgAAAAAAAAAAAAQQyRgAAAAAAAAAAIAAIhkDAAAAAAAAAAAQQCRjAAAAAAAAAAAAAohkDAAAAAAAAAAAQACRjAEAAAAAAAAAAAggkjEAfGaYDFkMiwyTEexQAAAAAAAAACBkRQc7AADhy2wyy2wyBzsMAAAAAAAAAAhpzIwBAAAAAAAAAAAIIJIxAAAAAAAAAAAAAcQyZQB8ZrVbZbPbZJgMliuDX7APEQAAAFB3tKsBAAg9JGMA+Mxmt8lis8hiWEjGwC/YhwgAAACoO9rVAACEHpYpAwAAAAAAAAAACCCSMQAAAAAAAAAAAAHEMmUAgJDBPkQAAABA3dGuBgAg9DAzBgAQMtz7ENnstmCHAgAAAIQt2tUAAIQekjEAAAAAAAAAAAABRDIGAAAAAAAAAAAggEjGAAAAAAAAAAAABBDJGAAAAAAAAAAAgAAiGQMAAAAAAAAAABBAJGMAAAAAAAAAAAACiGQMAJ8ZJkMWwyLDZAQ7FAAAAAAAAAAIWdHBDgBA+DKbzDKbzMEOAwAAAAAAAABCGjNjAAAAAAAAAAAAAohkDAAAAAAAAAAAQABFWSwWS7CDABCerHar3tr4liSpY3LHIEeDi0Wn5E4yTAbXFNBAdeqULMMwqWPH5GCHAiAMUGYA1aNdDQBAaIlwuVyuYAcBIDzNWjpLFptFFsOimaNn+u28NpvNb+cCAADhxTCMYIfgEe0UAIAvQr1+AwAEHsuUAQAAAAAAAAAABFB0sAMAgOqkphwPdggAAKCeZGW3DHYItUI7BQDgjXCr3wAAgcPMGAAAAAAAAAAAgAAiGQMAAAAAAAAAABBAJGMAAAAAAAAAAAACiGQMAAAAAAAAAABAAJGMAQAAAAAAAAAACCCSMQAAAAAAAAAAAAFEMgYAAAAAAAAAACCASMYAAAAAAAAAAAAEEMkYAD4zTIYshkWGyQh2KAAAAAAAAAAQsqKDHQCA8GU2mWU2mYMdBgAAAAAAAACENGbGAAAAAAAAAAAABBDJGAAAAAAAAAAAgABimTIAPrParbLZbTJMBsuVAQAAAAAAAEA1mBkDwGc2u00Wm0U2uy3YoQAAAAAAAABAyCIZAwAAAAAAAAAAEEAkYwAAAAAAAAAAAAKIZAwAAOHKcUAfPfq/Mg/7qdJGT9cvXtigk8GOCQAAAAAAABeIDnYAABAIJ0tiddARr2xHI50tjVZBaZQkKT7SqcaRJUqJKVS7mAI1jy4OcqSA7/IWfKRnFh2QU5KKTyjjnTf0zsQXNL1XsCMDAHhCOwUAAABoeEjGALioHChOUObZZOWWxlT591xntHKd0TrqaKRNSlZSpEP9G59W+9j8eo60nllfVtqMlXJKanXrn/TNjO7BjigEFerz3/xCj31f/RGXzfiH3ri1ufenLFqhB4b/S8uq+ltElBolJqj5Je106YDLdMV1Y2TumqCIWkTsLClR6fm/kbOkFieokwB8XiErW2/c/pD+sbV2z4qd/JDS/zwwMCGFkwMZmj3fLoek+EtH6o5Rrbx/bp5V9xivaXV1f4+MUeMmSUrt1FlpI4frxhsGqWtibe4ioH7RTrlQ5nP36673T5X/FC3zYy/rb1MSLjxw12e6dtpn2uf+ud/tWvj6JLWopziDLxD1LvVbnVC/AQCAWiIZA+CikOeM1sqzKcp2xNbqebmlMVqam6KUmGINb5ytxKh668lGQ+dyqjA3V4dzt+rwzq1a+PFXGnDXfXr+V73V1MtTNJ10o6bbjmv2qqPKj05W76vu0O19Aho1UHsHMjX7VasKJDW9vnvtOqtqUurQ2dMntSfzpPZkrtXHb3fTnU88oN8Ma1arxCYQaLRTahYTEy2Ho0TfL1qns1NGqnGlv++zrS1LxMREK8ZRIkcQYgTOQ/0GAABqiWQMgLCX5YjTstwUFbmifD5HtiNWC3Iu0aikbKXGFPkxOoSPaHUdM0m3dTr/t2e3pWvOulNVP6U2mnXX1ZM7K9H9s7NYJ49madembdp50imVntG6157X9KTH9Mbtbb37oh3fWXe88KzuqHt0Pgjw5xWyWmroTWnq4kULKqqXHztlIDXtoiundDs/WeksVk7WQWWu2alDZ11y5ezU6w89o9J//0nTL4sPVqTAeWineKdLz47avWmXilat0bKzIzXpvGzMCdms+yVJTXp2VPKmXdoflCiDKdD1LvVb0FC/AQDQYJCMARDWshxxWpybqlJX3ceIFbmitDg3VWOTsi7ajg54Eq0+19+uyhNLst7f459Ojkv66+4ZV6lN5d8XHNXil1/WH97fowIVacMrn2rJDQ9obKO6v2RgBfjzClltNPn+2zW1ihV0EGAt++muGdepUxV/Ks3ZpXd+/ze9sCpHchzQW0/M0+T/3qjukfUeJXAe2ineK+jVTUO379Kyoo1auLxQkyZWqAiz12rJVklK0Nh+7bRw065ghRlEga53qd+ChvoNAIAGgyocQNjKc0ZrWW6KXzo43EpdEVqWm6I8J7lq1JP4SzR2xnT9um95lZy/UcvWBTckINxENu2qO569V1e3LPvZtWeJ5qx3BTcoNHi0U2onK7+TJgyNkeTQioXrVVjhbyet67TJJSlpoEZ3zlVekGIE6hv1GwAAF5eLrxUPoMFYebZuS35Up8gVpZVnUzShyRGvn3Og8LB25e9VjjNPcpUqKTpJpkZt1SW+oyIiLtKVnYtOaPWX3+rzxZu0cedxncgtVmR8olp17KQBI4Zp2o1D1SPZy5y/47TWz1+ozxZt1PrtR3U8p0ilsfFq3qaD+gwaoKtuNDSyg5dLMuQdlvXLxZpv3arNu4+Vx5Vw7lxTbzJreLs43993QLTQ8BHt9NzG/ZIKdSwrX9KFQ1Otf7hTD33tYZV886+09rkRqvGuqLhpbJfr9NlH16n1/gy9+erX+na1XYdyShSb1Fwd+/TRpGlTdOPQFNVulwM/8OP1lbtrld55a4kWr92rQ6dKFNu8pboMGKpb7pys8V3iK2we3Uw/ffNFPRyofXdKt+qJCU/ok1OS4gbq6UUPaYLHy/qU3vmf+/X8JknqrBnzHtPtras51HFamfO+1acLN2j99mwdzy1WZEKSUjt21sCRwzTtpiHqluShLPLXNbH+XY37+QKdrOZlcj59Sv0/rfpvdd4QOqGPbpicoi/eyZZ0RuvWH5UGVPOB+aGcOPzOTE15YbckaZTlNf1jilNb58/Vfz5Zpx/2HddJR7SatzVpwKiRuv2no3RpjddrqY5vXK4PP/1eK9fv18HjecordMoVFaPEJs1lurSXxlwzUTePbX/BXhpVqus1EZD32LDQTqmdwuNFGjSlr2KWZqhwZbqWFw7V5Y0kKV822zaVSkoyD1bH059VfYLSXfrrVRa9d1SSEnTVCy/psVExHl5wrR69/AV9VyApoqt+O9+iW6tcfcuf96ZLuTtW6q03rVqyzq7Dp4oVkdRCXS8boOt/fo2m9mqsZTN/runziiQlatqr/9bv6lAs1hvqN+o3j6jfAABwIxkDwGeGyZDFsMgwGfX+2geKE2q9CW5tZDtidaA4Qe1j82s8dn/hIa3N2XDe73IcZ7TRcUYul0vdGncOVJhBU7xvuSwzZuvrfZUSA7mnZd+UKfumTM15/1vd8ZcH9cDQZI/7n5QcWKUnHvmP5uyqtOSKI09Hdv6gIzt/0Lcffa1R9z+gv9zexcOXNJdOZXyuR3/3hdaedJ7/p7xcHd6xRYd3bNE3H3+jcY88qCeu76CQSsm43KMco9QkuX7XKCs9uFgP/vR1pVcYalx8Kkubl2Zp89IVmv+zB/Wv6b3VpJ7i8d/15dKhb/6le/+0Ugcr7HldmHVYmV9/pkzbOt390h80NEDv4wKRPTTWnKhPPs+TijZryapiTRjjoRw7tU62LeWPe6ZpTDX9LiWHVuvJGa/o852V7qEzp7RvY4b2bczQZx8s1C+fmq5fpSV5FWqoXRPeat8+VVK2JOnUqVxJlT+0QJUTBVrzt2d03/sHKmwqXqys3Vv19e6tWvDFSj304oP6aa/qeicLtP6VZ3X/f3Yor/KAZ6dDeaeytGVFlrasWKZPxtyhl54cq84eLp1AXBN1f48NC+0UH5w8o+LRQzQsNkNLCzfquxVFunxcnHR2vaxrnZISNGZcH51e/XrVz4/sqqlXttV7rx2SlK8lX29Q0ai0au/hwu/Ttbyg7HFU/2GaWGUixp/3plP2uf/UPY+vUVbF4udUljYt+Vqblq5V5rMWja3u6aGM+i3gqN/KUL8BAMIdyRgAPjObzDKbzEF57cyzyTUeU1rq1LEfNivrh806e/yYHIWFiktqqsSUlkq9tI9SuvWUPIwGzTyb7FUnx56Csi1k+yZdqi7xHSVJuwv2aWPuD9pduD90Ojn8JWe9/nzfK/r6aPk3qkYt1HdoL3Vv1UglOce0efUW7TrllOvMLr05469KeH2mftmjmpGpuZv05H0va86h0rKfo5uo+6BLdWm7BDlPHNfuLdv1Q1aRVHJCy/72tB6Jf1z/uj61ylOV7Jyn3zzwmX4oX9ckKqmtBqSZ1K5FIzlOntDeLVu1JatYKj6mRX95WnHNn9YTYxL9/OH46oRWrDxU9jCivXpVsxB42+HjdVuz0kpP3a453+zVWZ9fO09fPDVX6fkJ6jykj/p2SFLkmWPasGqzdueUSirQD2//XZZuz+j5K2q+7+rMj9dX6Z6v9KilQiKmUXP1GXKpeqbGqSj7gNas2qHZzyxU+/6Bf1tlIjVozEAlfm5Tnoq0wrpZJWMGVNsYy12WqfXl/93dxw5S2yoP2qJn7vunPj9QdmBEYqr69TOpQ2pjlZzM1u4t27U92yHXqW169cG/Kv6NP+p/utXU/KvDNdG8syZdOUq5FX+XvVPz04/KKSnW1EcT+1R9HUX3a1FDXDUrLPqxcyYu5sLrIlDlhGvrXD323wMqbdpWw4Z0U/vkCJ05uFvp6ft1yim5Tm3R8w++rnYf3acxTS98fsGq9/XbV3eUL70UoURTDw3u3VqtkuMUWVKg4/ZdWrnmkPJKnTq65A09+GJbfTKjR9WjtwNyTdT9PTY0tFN8cDpXpxMnaMKwGC21FWn5ok0qHpem0lXrlO6QlDRA44dGKXvemWpP0X3qaPWc/YG2uaS8pSu1vDBN46oc3+DQ9wvXqywXE6m0SUNVVQnkz3uzZNsczfhzhURMef3Wo1WcirIPam36dn3x+H+VMLgWn1nIoH6jfqN+AwDAGyRjAISdkyWxyi31sOyEpOL8s/phzifKOXr4vN8X5eaoKDdHJ/bsVqtuPdTrquuqPUduaYxOlsSqeXSxx9fKKynrBjfFtzvXZ9IpvoM25v6gAmeBF+8onJRq8xvvaG55R3ls90l68Z+3aHCLCsuwFB7WnD89o8cWHZercJ9ee86qq18drwsHnJZqyxtv6/PyREx0x9F68oU7Nb59hf9bxymlv/qiHn59h/KVr1X/+FALJ0zX5RcMdMvXgpfnlH8BjVH3m+7T3x9O0yUVL5OSHGW+9289/I9NOu3K0fy/zdNPx9ysnv74WOqi4KgWv/yy/rWx7HNoMn6qrq2yV0LqdsWteuSKSr/c+qEW1yUZU7BJy/b00iPv3K/belYY8XfWrvf+9xn9dUWOpHwtefUbbb9imnr4+jpe8ef1VSzbG3P1Q/ntG915rJ5/6Q6NavXjuZzHN+lvD7ygP75ffxthRw9O0+hEm+bnSbnL1inDOUBDqlzFqEjLl25RWZ9dW42rctiwS9veflsfl3dKtDL/VC/8aYJ6Na3QeVuUreWvvKzfvbVTZwt269/PWTXl35crxVOQdbkmOgzXb2cNP/98K1/TwvSjKpAUnzZFj/3+J55evQ4KlJGxv/xxhNq1r/wuA1dObJi/QgnmO/Xh4+PUtcIKgwV7rPr9fbNlPeaSjn+vF9+7SuZfd6g0m8uhZZ+v0HFJUpQ63/Ko3pzRW5VXWMndMke/ufcTbcx36cAn8/Td3T005YKyMEDXRJ3fY8NCO8VHp87opOJljO+rWFuG8ldkaI1zoLRyk4okJRqDNSQmVx+fcFZ/jrYjdfWAj7QtwykVZGq+rUDjJlYxmr14k75zT4uJ7q3J46vqYfXnvVmgRbMXaHf54IDYbhP1wj9v1bCWFeqkUz/on9Nf0fxMTx9S6KJ+o36jfgMAoGYkYwCEnYMOz1PEnaUl2jLnI505elSJLVPUYegINWnTVnGJTVSUl6szhw5of/pKtexxqVevVVMnR4mrbEJ7TMSPRWpURNnMBpfrYttgc7fmL8gqexjRRj+bWamjXJIatdE1j/1c6zOf1hcnpeKMFVqYPV63XvBNaI/mf12+3n1EW9311C80vn2lGSExzTTkvgf00JaH9UR6sZSXqQUri3T5xMoLKxzX2cS+GjdWUkw33VH5C6gkRTdV/zvu1d3Lf6Nn1rmkQ5latvdm9ezk84dRO0cz9epzOTo3BtFZpJNHj2nnxm3adcopKULJaTfqpT8MlreLKvjF4dPq/vSs8zslJKmxSbc9eYcyr/yHFuVKOrBB3x+cph7tAhmMH68v13bZlrpTVC017fc/PS8RI0lRLftoxlPXat31H2prpQlH1Tusr198VztqaEE1HzJFd41sduEfYn6icSPiNf+bAilnnazrXRoysIqv9cWbZUsvXyyjY5rGVjlwfbfmzSufUZU0WI/OmqhelQe5xqVo5AO/0T3rHtTzm1wqWrNc32VfXsX9WPEthtI14b3cjE/06tLyxFpUF40cXvnDCFw5kRszUE/9eZy6VvrI4jub9cTvt2vKg8t0WtLexau199cddP5/53Hts7vrmU667mcXdlRJUlLvqZr1l0StOlQqqZHaVFk1BeiaqPN7bFhop/jIcVa5hVLi6CEaFpchW956Lc3cpejvz0qKl3lcH8UoW2eqnxgjqamumNpXf8vIVLEcWrEgQ3kTR6rybeBIX6Nl5ctUxQ4brrFVrknlx3vTuVW278uTPxGX6NY/3XJeIkaSoppdqulPX6HMa97RMU9vMWCo36jfqnht6jfqNwCAX5GMAeAzq90qm90mw2TU63Jlxxye99PI2rSxrIOj1SW67ObbFBX940T3uMQkpfS4VC279VREZM0bMR5zNJLiczweE0LdGIF3fI9+yC5/3GaALu9ZzcbEjcq+kH8xt0CSXdu2SRcMSzu+W1vcvQ2dh2hSt+r+P5I11txVT6T/IKlEu3dnSepQ6ZgOmvb4dE2r8Q00VfduTaR1OZKO6/ARSfWVjDm1Q1+8v6Pqv0UkasDPH9Bz916q5PoebteonyaZE6r+W2J/XZ4WpUVLnJKO69AhSYHsmPDn9XXskHa714NPTdOk/lWPUo/oMEJX/ORDbd3odZBa9dECrarhqI7xo6vurFKMho/tq0bfpKtQZ7TEulP/b2D3C45yrlmnFeWrD7U3D1LXql7kxJ4f76FevTW42tVGWmjo0DbSpkOS9mnrVl34eVUUStdETUodyjt2SGu//UovvvK97OVJtVZTr9N1F6xoGLhyotnYERpeTf97wsjhMpKW6YtcSfsOaJdT6lztnu4Rqr5qilTHkZero6dAAnVNyJ/v8eJHO8VXZ3UmV1LKAI0fFiObNVdL3/xcCVmSEvtr/NAYSfnK9ZiMkZpcq0Kz1AAAIABJREFUbsj8TKa+PSsVrVypxWdGaup5yRanvl+YUb5sUoxGTk7zYhBEHe/NrKPa556E1GagJl5azdfw1sM1se872rCuxoACgPqN+u1C1G/UbwAA/yIZA8BnNrtNFptFFsNSr8mYfKfnFvCxLZskSZ1GjD6vg6Mibzo4vHktqcK+6+U+y5rv8efKrkutvO5UCDt9Vue6fNq1UptqD4xQq9RmkgokOXT6dKGkSp1TFc+V2lyXeHjZ5jf9Xpk3+RhzJZFR7v97h4o9DyauP648rXvtWd26/QY9+/gU9a7PqTGprdSu2tZAjFqlJkk6LalIBYFezcaf11duvs7tzdsuVe2rPVcztWkdLW0sqfYIf2s0fJCGxaVrSZGUZcvQthndKy0T4lLGsvXl8bfQ2HHVdE+cytPp8ofxrZp77Exs0qRx+aMS5eRU8XlVFErXREW7P9N1Az+r8bDEn1yv5x/p6+kd1qi25UTbtlXu/F0moqXaXCIpV5LrrHJyJZ23rUArde0cJ+0skrRLH/xjhYb/boRM1fQXehSoa0J1fY8NC+0UXxXobJ6klEYyj++nWOtaHf2+LFOeOGqIhsVK0lnl5nk6h6RG/TV1fJK+nZMrlWzR1wvPaOp1FbIxzi1aZCvPBsT31xWjq5vJ5Md782z+j8uJtm3loY8/Sa1TY6QK24iHE+o3H1G/1Yz6DQBwkSAZAyDsFLo8dzzknzghSWravvruV3+9llS2t24orfIRUKVOnVupPTa66s01y0VV6EhyllSxBlTFc0VFyrtuJ88KDqzXJ+8v0Xfpu7QvK095hc7QGRHca5q+eveqCgmGUhXmntSejNV691+f6etdhTqy7APd+2icPnj5crWrrxky0dEeGwMRke5AXIH/LAN1fSXEefwaHh0TJcnbZExfzVr2qKb60pFwLp5+GjskRkuWOqRD67Rk5y3q2a3iAXtkW1qelmo1SON6VXOeCu+xYN5z6j/Pu5ev8vOqKJSuidpo1EKDr7tF//eboepQeSXDCgJRTkRHe6orktRr7Chd1UOSWst0waFRGnnTGLX5doEOu1w68NW/dN3iD9Wtbzf17tpOXbq0U5fuJl3aNVVJnrchCdw1obq+x4aFdoqvilVYvhJT41HDNa7lNq10SFKcLp/YV2WXv0OFhTWdJ0rDpo5QqzkLdExOrVmQrpPXjVfz8r86V6+WtXwX9sTRwzWy2lXl/HhvuiqUl3Ex8nT4j53l9Y36jfrtQtRv1G8AAP8iGQPg4lVPPQ/XtppcL68DT1zKWjJbv/qDVXtr7KQJFZFqlNRSl5qv0JNDeqr1XY/r9R0O5a3+r/6xcLieGV+X3hCEtngZY3oraul6OXVENtth/apbhXlAO9ZpWfnWOa3Gpukn7BRbpmkXXTmlmypus+2KiFbjJk2U2qmz0gZ1k6mJp16SYJUTiRp19z0a5eGI2Mum6cU/5uihZ77X/kKptOCUtqev1vb01eeOiUhoob6jR+v2n1+hyzt73pOk/tX8HlEF2imVlMjhnhDSeLCe/GZwFYc45PDiY4vsN1pXmhbodbvkzFypb46N1y2tJKlU6YsyVLbSWYLGTO4nD33bF8G9Wd+o33xC/RbC9xD1GwDAv0jGAAg7jSKccriqHzWY0KKFco4e1ukDB9Sic5UrUdfqtRAG9n+jR/7Pqr3lI2pjW3XWsP4mtWkRd8GMm2NrrfpuR4hlbOI7694Zhr64Z6FOqEBL5q9T/viRIh1z8Uoy0jQwar1WO6Xt1nU6/Is252ZN7VmaqQNlR2nM2B7ypq8qutNATRtWw6Lo5Tp2DdPmX8t+umvGdb5v8xTS5USMOl99nz4dOVnfzV0ha/o2bd52WEfOOM6Nanbln9CGBZ9rw+KVuubJP2jmmKr2bPhRg7gmQhTtFF+VqKSm1blKnF7OY+ygq6d21Osv7pNKd2nBd8d1y20tJedWLXJPi2mapsnDahqO7/9782JH/eYD6jfqNwBAg0HNBCDsJEQ5lVta/ZfnlJ69lXP0sPYuXazktu0UFXfhAkVFeTmKjIpRTLzn7u6EqIupk+Ni5dKaD+Zqc/kX0ObmX+jNJ8xqX826VJnPpYdeMkZSTP8+GhS3UAuKpJIddu3VSPUOdlDhLDJK58aQ5hepUKp29HOJIwj3edOBGtf/da1eWyptWyvrsSt1aytJOq6l1v1lxyQP1NjLvBs2HNPbrEdm9A9YuOEvPMqJ6BadNfl/Omvy/0hSqQpPZsu+Z782ZKzX158u1/oTTqk4S3Nmva0RadN1uYdF87kmgod2iq9cKq1p1ktpqWpedKhMhymG+r+8T5lOlzZ+/b0O3XaVLlm3RktOlf29+eXDNdjLb8P+vDcvetRv9Yz6DQCAcBKsBWkBwGetYjx/gWjdv78SU1J19uQJrX17to7+sElFeWfkKi1V/skTOrhujda986a2fP6xnDUMwazptRqcih3cxSXytO+ns/TH7pKyPTk8nMtZQ+dKqVPFRQ4VFTlU7KzcU3NUmZnubd876o4Z1X8BDWlRiWri7nM7W/jjRr8NiT+vryYJSnQ/PphVPhK3Kqd0+Ii3+8X4U5LGjOleNirYtVtWa/k1fHydbNvKHjYxBmmgp1VJKnxexUUOrzsoG6ZwLCci1ah5qnqkDdJN9/xSb3z6/3RT+/LOy9xMfZdeRf3FNRESaKeEiJQRmjq0PCm2dZUWHnJpgzVDZbmYppo46VL5tv2DD/dmRMSPs0CKHPL0v1rqDPc7l/qtflG/AQAQTkjGAAg77WIKPP49MiJKP7n2BiW2ukSFuWe0fcE8rXr1JS194WmtefNV7bYuVHFBvhJTUxUZ6flreE2v1eAkN/5xPeuDx3S42gNdOpZVPvRUMWratIo5CRXPdeyksjy87ImP/6Ihw+/U0OF36uZX91f6a55Ou18qKkVtUj29AZdOn873dEDw5Gfr8Jnyx00an7dueIPhz+srpa26urMxWWu1ILPqri/X/hWav8XXgOsmZWyaepf1VmndskzlSspZtl6bXNK5dfc9naBZopLLHzoPZuloYMMNcxdBOZF0qW6+skP5DyU6fPj0hcdwTYQE2imhIkETpg5Q2Q4Udi1bvkHLlpcXBK2GaXJ/P30V9ubebJygxu7Hh47pYLUny9WRrJrWagt91G/1ifoNAIBwQjIGQNhpHl2spEjPX1TjEpuo/20/U1fzeDW9pI2iY2IVFR2t+ORmuqR3H1027TZ1HTdJEZHVF4NJkQ41j/Y0Nr8BatlJvVqWPz6cqUXbq1kepWizFq9wdxB1VK+eVZ2ri3q7l3vevUbf7q5ubZJTWmTdXf44Rl26XFLp7/FKdHe6Ow9oe7XnkXQqXV8uK6r+71VoFBd77nFeXuC+wB6Zt1Sryz/OuJ4d1TFgrxRYdfq8/Hl9RfTQ6NHuqUbH9d8n39XyY+efz3lik5773efaGqxVfloN0uW9ymPJWK9VhUVasXyrnJKUcJnGDqlh/ZwWndW7Vfnjnau10F7dtZ+rLx65X+PG36dx4/+g/+zwT/hei4k+ty6uoyhYnYyBLSfq5NBqvfD4a5r1+Gt6/P3t8jTPoSD/x7/GVbjXzgmXa+IiRzsldCQYozW+PMu/ce6nWlmeBWk7cZj61LRKlj/vzdTW6uSukg6v03fVVTxHv9d3G2uIq5L6aqfUCvVbPaJ+Ox/1GwAgtJGMARCW+jeuYsRUJZERUWo7IE2X3XqHRtw/QyMf+K0G33Wveky8Uk3bdqjx+d68RsPTVVdMLh9y5zqktx/7r9acqrRQQOFRzZv1ur44WfZjbNoIjatyj83OuuKK8sSK64Bm//5NWSsvF+U4pfSXXtTfV5d/wU3qr0nDK8+CaKO+/dzjTY/q3cc+UHp25WWnSnRs/WLN/NV/tDmudnNOmpguOTcSb++iFdrq9++wxTqw+E1N//sP5ctyJWjcFf2q3d8k1NXt8/Ln9RWr0XdOVa/y7/Mlexbp/msf1h0zXtGTT7+pmY88pqlXP60PI6/Vn24M1uL+LTRmbHnarWiLVqzaqGXl13r8iEEaVkVfxPm66Mory7dFLtmr1x6fo01nKnVOuIq04+PX9E/rKZ08maOTUV00oLNf30TNUpurdfnD/A1btDkofceBLSfqJLlU9gVWzZlj1Wd/f11/W3FaVXXTFuz5Tv/83D2HsJl69qoqxjC5JhoA2ikhIqavrp7cXJLk2LpXZf2yqZo0uUvNz/XnvRnVU6OHls3RkeuI3n3sA60+cX795jy1Tf/83Zc63KLxhc/3IPDtFF9Qv9Uf6rdzQuGaAACgBl5uWQgAoaV9bL5SYoqV7ajx25xPUmKK1T42REYX+tmZ77/Qn2Y28eLIFE186DqNSK74u0j1ufN2Xfnd85p31KWibfN191Wr1W9IL3VvFaeSnGxtWb1ZO06Vf9Vq1FG/fNisVlWdXpHq/T8/0zUL/6o5h0pVvGuRHrp2rXoMvlS92yao5MRx7d68TVuy3L0KCRp6/zSNS7zwPMNvm6IeX32k7SVS4db5uvfqVeqd1lVdLkmU6/RJHbbv1YZdOSpp1Fu3XZGj9z7LqXySakX0H60r2y3Uuwcl5665uuumXRozuIOaN7pwSG18v3G67/LWVZxF0tFMvfpczo/7mMil4rxTsm/+QRl78s59OW067BbdZ8Rf8PTcjG/0ijX7wvOe2C736mbauULPP7dXlSPzGJef1e3z8uf1JUV1nqJnLft1zx9X6pBTUuEJbbQu07lBx/Ed9ctHx6nFp5/X4h0e1tcvvqsdXrSgonoZeuiK9h6P6TAmTV3+uU+7VaDlL38qR74kxWjE2L5eJOQi1POOO3Tjd0/r4wOlys38VHdcuUyXDe6hrimxcuScln3LD1p/sEBl3RWJGvPgNRpY362/DgNk7vyxduxxSQcW6J4b92lonxQ1Pm+Nmkj1u+WXur6qWU5+Edhyok4ap+nOm1pr6dtHVFpySB898LCW9umjAV2bq1l8lEqL8nTskF0Zaw7odPmlH91rgm7sU9XJwuSaaABop4SKCA2YOlLtP/zyx73DOg7T5B5ePNWv92a8xv18krrYPtdup1S8Y4HuuXqtLhvaS91S4lR8/KAy0rfrYMRQ3Wreovfn1eId+qudQv1We9RvnlG/AQBwAaomAGFreONsLci5REUu37ZfrU5chFPDG1fR6e2l61Kv8GM0/le4d4Pm7vXmyI7qek/lZIykpv31x5fuUcnDs7XA7pAKjmuDdZk2VH56Ulfd8dSD+nkPD1VNk776/Uu/luuR/+iLXUWSI0fbV3yv7ZWPi26hUfc/oL9cX/VC2JFdrtJzjx3SrywrdKBYUtFJbVmxWudtBRLXWtf8+W5dveNZvefFuz8nqrN+/eSNWn/fx9qcKxUe3KqvD26t8tCmRZdV38lxaoe+eN/TWgmRSh15s557YozaVLF0Sv72dL3n8fmSDm3U++9fuL6Jx7j8ra6flz+vL0Wo7cRf6YPOA/TOW4u1aO0+HT5dophmLdS1/xBNu/MKTewWr0UfVh5B6slxrfpogVZ5cWTs5F41dlap4yCN7fSJdu+VTuwuXz8nto/GjvBy993E3nr0pd/I8fArmrOrSK6zx5S55JgyKx8Xl6oJMx7UrEnNvDuvX7XTz/7vSi25b652Fkr5B7dp8cFtlY6JlHNMIDurAlxO1Em0+v76Yf3xyDN68rtsOVSso5syNH9T1UfHtR+uWc9Mkam6JZbC4ppoGGinhIgehq7q/qVeLq9Cu08eJi/mxcjf92Z0z2v01z8c0L1/Xqssp6SC41q/ZJnWuw+IaqHJT96qUem/0/u1eX/+aqdQv/mA+s0z6jcAACojGQPAZ4bJkMWwyDAZQXn9xKgSjUrK1uLcVJW6alr42zuRES6NSspWYlRtOmcbntiOI/WX93vpmi+/0eeLN2vjzmydyC1WZHyiWpk6acDI4Zp201D1TK55NcyY9kNlebeHrp6/UJ8t3KgN27KUfaZIpbHxatamnfoOTtNVNxgaZbpwtsiPyjrdP+wxWB99YNOi9N3adyxPBa5YJbduqz5Dh+iG28ZpRNtY7fJh7ej43ldr9nsd9f4b32jByl2yHy9QodPDmtxeioyNV1KzFur6k94yX3m5rh3VWo39cykHVV0/L39eX1KEkroN1a//PFS/ruYIl6vu/5e+a6txY1rrP3uPnPtNzJA0jarFKjXRbQdr5rvddNW8b/XpdxuUuSNbJ84UKyI+QSntTOo3ZJCuvnG0BrWOCUD83ml82TS98WYHzZ79nRZn7Nfh04VylNb8PP8KbDlRJzGtdc1TT6n/lMX68Is1Wr3loA6fLFBhiUsRUTGKT2qidl26KM08Sjdf21/tPRWHCo9roiGgnRIqohUbEyHJJamDJk9s6/1T/XpvRqnj1On6qMcKvfWWVdaM/TqU41R8yxR16jNQ0+6aogndErTy+9rXSYFqp9QN9Vv9oX4LpWsCAABPIlzB7YEAgAvYbDZJUmrKca+Oz3LEaVluSp1HnsZFODUqKVupMSGx2DaAerLwf3+m335bKqm5fvbWP/TQT4IdEdAwZWW3lCQZRnAGeXiLdkqY2TdHN1z/iXZLiuh9i+a/PUWXBDsmD5ZZfqEH5hZKStS0V/+t3w0MdkQA6ipc6jcAQOB5M6QUAEJaakyRJjU9qpQY33fNTIkp1qSmR+ngABqcPB0/t4lyYyVdsCcRANQN7ZTg2jp3uXZLkiLUb9LQkE7ESMGerQkAAIBAYpkyABeFxKgSTWhyRAeKE5R5Nlm5pd5NTU+KdKh/49Nsggs0UI69Vn3l3mYnoYN61LAEPgD4gnZKkJTu0Jfzj5Y9juyuyRNaBDceAAAANGgkYwD4zGq3yma3yTAZMpvMwQ5HktQ+Nl/tY/N1siRWBx3xynY00tnSaBWUli0NEh/pVOPIEqXEFKpdTIGaR/s+ShVAOMjR8jfmatXJSr92lSgv+5Aylm/VQUfZr9pcM1bD/LvPNgCch3ZK/SpZvUxfHyt7HJU2XBNaBjceAAAANGwkYwD4zGa3yWKzyGJYQiYZ49Y8urisAyM+J9ihAAiqM9owb4He2+f5qKS+1+vpX/egYQSgXtBOqQ8OLZubrrJPOErDJg1RcpAjAgAAQMNGnwMAAGiAIhWXmKjUjt00YtIE3XFDb6V6t2oQACAc5GVorrV8ebfYvpo0lk3BAAAAEFwkYwAAwEWsve779F3dF+wwAAD1K3Gonl8xNNhR1NroWbOVOSvYUQAAACAQIoMdAAAAAAAAAAAAwMWMZAwAAAAAAAAAAEAAkYwBAAAAAAAAAAAIIJIxAAAAAAAAAAAAAUQyBgAAAAAAAAAAIIBIxgAAAAAAAAAAAAQQyRgAAAAAAAAAAIAAIhkDAAAAAAAAAAAQQCRjAPjMMBmyGBYZJiPYoQAAAAAAAABAyIoOdgAAwpfZZJbZZA52GAAAAAAAAAAQ0pgZAwAAAAAAAAAAEEAkYwAAAAAAAAAAAAKIZcoA+Mxqt8pmt8kwGSxXBgAAAAAAAADVIBkDwGc2u00Wm0UWwxKQZMzjT3zm93MCAIDQdPfddwc7hFqhnQIA8Ea41W8AgMBhmTIAAAAAAAAAAIAAYmYMgJDFCCIAABCqaKcAAAAAqA1mxgAAAAAAAAAAAAQQM2MAhBzDMIIdAoAgWbv2iCIipIEDWwc7FACoEu0UoGpr1x6RJKWlUYcDAABUhWQMAAAIGbNm2RQREaEvv5wW7FAAAEAtzJplkyTNnXtzkCMBAAAITSRjAABASFi79oi++mqnJCkj4wizYwAACBMV6/C1a48wOwYAAKAK7BkDAABCwqxZNrlcksslzZq1NNjhAAAAL51fh9uCHQ4AAEBIIhkDAACCruKIWkmaN2+HMjKOBDEiAADgjcp1+Fdf7Ty3fwwAAAB+RDIGAAAEnXtErRuzYwAACA9V1+HMjgEAAKiMZAwAAAiqyiNq3ZgdAwBAaKuuDmd2DAAAwIVIxgDwmWEyZDEsMkxGsEMBEMYqj6h1Y3YMAAChzXMdzuwYAACAiiJcrqqaTgAAAIG3du0RDR78WpUdOZIUESGtWfMLDRzYun4DAwAAHnlTh69e/QulpVGHAwAASMyMAQAAQVTdiFo3ZscAABCavKvDmR0DAADgRjIGAAAERXXrzFfG3jEAAIQWb+tw9o4BAAD4EckYAD6z2q2atXSWrHZrsEMBEIZqGlHrxuwYAABCS+3qcGbHAAAASCRjANSBzW6TxWaRzc4XLAC14+2IWjdmxwAAEBpqW4czOwYAAKAMyRgAAFDvvB1R68bsGAAAQoNvdTiDtwAAAEjGAACAelXbEbVuzI4BACC4fK3DmR0DAABAMgYAANSz2o6odWN2DAAAwVW3OpzZMQAAoGEjGQMAAOqNryNq3ZgdAwBAcNS1Dmd2DAAAaOhIxgAAgHrj64haN2bHAAAQHP6pw5kdAwAAGi6SMQAAoF7UdUStG7NjAACoX/6qw5kdAwAAGjKSMQAAoF7UdUStG7NjAACoX/6tw5kdAwAAGiaSMQAAIOD8NaLWjdkxAADUD3/X4cyOAQAADRXJGAAAEHD+GlHrxuwYAADqR2DqcGbHAACAhodkDAAACCh/j6h1Y3YMAACBFag6nNkxAACgISIZA8BnhsmQxbDIMBnBDgVACPP3iFo3ZscAABBYga3DmR0DAAAalgiXKxBNKwAAgDJ2e468bW78/e+r9cIL6XrwwSGaPn1wjcdHRETIZGpa1xABAEAVqMMBAAD8JzrYAQAAgItbbTpakpMbnfu3Y8fkQIUEAAC8QB0OAADgPyxTBgAAAAAAAAAAEEDMjAHgM6vdKpvdJsNkyGz6/+3dd0AU1/r/8Q9dEOyAHcSuUaNiL2Cv0cQU001y03tibr755aaQ3m7KTb0xppqYXFPUaCyxgaixIfaOiiiRooggbVn29weLImVZZcelvF9/LTDMnJk9e/Y585w5J9zZxQEAAAAAAACAKoknYwBcsqj4KEVERSgqnsU3AQAAAAAAAKA8JGMAAAAAAAAAAAAMRDIGAAAAAAAAAADAQCRjAAAAAAAAAAAADEQyBgAAAAAAAAAAwEAkYwAAAAAAAAAAAAxEMgYAAAAAAAAAAMBAJGMAAAAAAAAAAAAMRDIGAAAAAAAAAADAQCRjAAAAAAAAAAAADEQyBgAAAAAAAAAAwEAkYwBcsrCgMEWERSgsKMzZRQEAAAAAAACAKsvd2QUAUH2FB4UrPCjc2cUAAAAAAAAAgCqNJ2MAAAAAAAAAAAAMRDIGAAAAAAAAAADAQExTBuCSRcZHKio+SmFBYUxXBgAAAAAAAADl4MkYAJcsKj5KEVERioqPcnZRAAAAAAAAAKDKIhkDAAAAAAAAAABgIJIxAAAAAAAAAAAABiIZAwAAAAAAAAAAYCCSMQAAAAAAAAAAAAZyd3YBAFQfkfGRioqPOv/zkUgnlgZATRYZeeSCn8PCghQeHuSk0gAAAAAAAFQOyRgAdouKj1JEVISziwGgFoiMjFdkZPy5nyMiwkjGAAAAAACAaotkDAC7hQWFKSKsdDImLCjMCaUBUBOFhQUpIuJ8mxIZeeSCpAwAAAAAAEB1RDIGgN3Cg8IVHhTu7GIAqMHCw0tPR0YyBgAAAAAAVHeuzi4AAAAAAAAAAABATUYyBgAAAAAAAAAAwEBMUwbAbpHxkYqKj1JYUBjTlQEAAAAAAACAnXgyBoDdouKjFBEVoaj4KGcXBQAAAAAAAACqDZIxAAAAAAAAAAAABiIZAwAAAAAAAAAAYCCSMQAAAAAAAAAAAAYiGQMAAAAAAAAAAGAgkjEAAAAAAAAAAAAGIhkDAAAAAAAAAABgIJIxAAAAAAAAAAAABiIZAwAAAAAAAAAAYCCSMQAAAAAAAAAAAAYiGQMAAAAAAAAAAGAgkjEA7BYWFKaIsAiFBYU5uygAAAAAAAAAUG24O7sAAKqP8KBwhQeFO7sYAAAAAAAAAFCt8GQMAAAAAAAAAACAgUjGAAAAAAAAAAAAGIhpygDYLTI+UlHxUQoLCmO6MgAAAAAAAACwE0/GALBbVHyUIqIiFBUf5eyiAAAAAAAAAEC1QTIGAAAAAAAAAADAQCRjAAAAAAAAAAAADEQyBgAAAAAAAAAAwEAkYwAAAAAAAAAAAAxEMgYAAAAAAAAAAMBAJGMAAAAAAAAAAAAMRDIGAAAAAAAAAADAQCRjAAAAAAAAAAAADEQyBgAAAAAAAAAAwEAkYwAAAAAAAAAAAAxEMgaA3cKCwhQRFqGwoDBnFwUAAAAAAAAAqg13ZxcAQPURHhSu8KBwZxcDAAAAAAAAAKoVnowBAAAAAAAAAAAwEMkYAAAAAAAAAAAAAzFNGQC7RcZHKio+SmFBYUxXBgAAAAAAAAB24skYAHaLio9SRFSEouKjnF0UAAAAAAAAAKg2SMYAAAAAAAAAAAAYiGQMAAAAAAAAAACAgUjGAAAAAAAAAAAAGIhkDAAAAAAAAAAAgIFIxgAAAAAAAAAAABiIZAwAAAAAAAAAAICBSMYAAAAAAAAAAAAYiGQMAAAAAAAAAACAgUjGAAAAAAAAAAAAGIhkDAAAAAAAAAAAgIHcIiIiIpxdCADVR5sGbRQWFKbgBsHOLgqAWqJNmwYKCwtScHADZxcFAADYwHc2AABA+VwsFovF2YXA5RcVFeXsIgAAABgqLCzM2UVwKuI9AABQ09X2eA9A9cI0ZQAAAAAAAAAAAAZyd3YB4FyB/qnOLgIAAIBDJaU0cXYRqhTiPQAAUNMQ7wGojngyBgAAAAAAAAAAwEAkYwAAAAAAAAAAAAxEMgYAAAAAAAAAAMBAJGMAAAAAAAAAAAAMRDIGAAAAAAAAAADAQCRjAAAAAAAAAAAADEQyBgAAAAAAAAAAwEAkYwAAAAAAAAAAAAxEMgYAAAAAAAAAAMBAJGMAAAAAAAAAAAAMRDIGAADenxKcAAAgAElEQVQAAAAAAADAQCRjAAAAAAAAAAAADEQyBgAAAAAAAAAAwEAkYwAAAAAAAAAAAAxEMgYAAAAAAAAAAMBAJGMAAAAAAAAAAAAMRDIGAGo7U4LmPP3/FD7gNoUOfUx3f7BNp5xdJgAAUPMQcwAAAKAWc3d2AVB9ncr31DGTt1JMdXS2wF3ZBW6SJG9Xs+q65svfI0ctPbLVyD3PySUFYEvmkjl6e0WCzJKUd1Ixs77WrDEf6LHOzi4ZAMDZiPfgSMQcAAAAqM1IxuCiJeT5KPZsA2UUeJT59wyzuzLM7jphqqMdaiA/V5N61j2tVp5Zl7mkl1FmpO4Lm6mN5fzZrU5dNfZvouAremj0xDCN7x8obwccdvWL/9BjC3Ml+WrqjP/qmd4O2KktkZ8qdPo6mSUF3PyClk7vYPABq6MczX34br38V/lbXDn9Q319cyP7d5m7Vo8O/EzRZf3NxU11fH3UqGlLdel1pcZPGabwdj5yuYgSm/PzVXDhb2TOv4gdVIoB16vKStHXtz6hD/dc3H95jntCG141+sNdDSTE6MtF8TJJ8u4yWNOGBNj/vxW00XL1UN16fgpsE6LQwQN1/XV91M73Yj5FQM1DvFeG2hDvEXMQcxBzEHOA9xEAYBiSMbBbptld6876K8XkeVH/l1HgodUZ/vL3yNPAuinydbtsPa4qw5xzVskJZ5WcEK+Nixfr22HX6/UXx+sKP2eXDNWexaycjAwlZuxR4oE9Wv7zH+p110N674Guqm/nLuqPvV6PRaXqy/UnlOXeQF2vmqZbuxlaauDiJcTqyxmRypZU/9oOF3djpCIFJp09fUqHYk/pUOxm/fxde9352qN6eEDDi7rJCNQExHuXrsbHe8QcqC2IOVAR3kcAwCUiGQO7JJm8FJ3hr1yL2yXvI8XkqSXpTTXEL0WBHrkOLF0VU7+tJk5of0GntCDvrP4+uFcbt6YoSyYlrJqtBzPcNOvTMQq69EuKKsld7YaN1S1tLvzt2b0bNG9LWuV337CDJo8LkW/Rz+Y8nTqRpIM79urAKbNUcEZbZr6nx/xe1te3trCvM+AdomkfvKNplS/dJTD4elVZTdT/hlC1teNb2K2zA28AoMw2WuY8pScdU+ymAzp+1iJL+gF99cTbKvjvC3rsSkeMaweqB+K9i1Ab4j1ijhqCmMNpiDlqBt5HAIADkYxBhZJMXlqZEagCS+XHeORa3LQyI1DD/ZJqbge9SQ/dNX2K2pT6Q4FOxczT9Cd/09ZMKWPzbL0+t58+v66BEwoJ47ir27W3quQgz6TZhxzT0W/aU/dOv0rNS/4++4RWfvqpnpt9SNnK1bbPf9Wq6x7V8DqVP6SxDL5eVVZzjXvkVk3ycXY5aqFy22ipIP2gZj37vj5Yny6ZEvTtaws17n/Xq4PrZS8lcNkR712k2hDvEXPUEMQcTkPMUTPwPgIAHIivCNiUaXZXdIa/QzrmRQosLorO8FemubblAl3VqPcUvfdMb9WVJJm18dcoJTi5VKghvJtq+PTH9GB3a7OetV3RW5xbJKC6ca3fTtPeuV+TmxT+bDm0SvO2WpxbKOAyIN5zpFoQ7xFzAJVGzFEz8D4CAC5Wbesd4SKtO1u5qSrKk2tx07qz/hpd72+7/ychJ1EHsw4r3ZwpWQrk5+6noDot1NY7WC4u1Wdm1oajhmrQqzH6M0dS3BHtM0utyrzEFmXsX6dvv4nUqi3xSkzLk4tfY3Xo3Uc33D1Z49t7y9XV3nxqgVK3r9FPv/6ldVuP6lhqpjJzzLK4eci3XiMFdemsYVeP0Y3DW1lvHFxGuSe18fc/NXflDm0/kKqTGXly9fZVQHAb9Ro0QFOv76+ODew8T9NpbV20XL+t2K6t+04oNT1XBZ7eatS8tbr16aWrrg/T4NZ2PjaemajI31dqUeQe7YxLtpbL59y+Jt0QroEtvS79vA3RWAMHtdS7249KylFyUpak0sMgI5+7U08sNpW/m/AHtPndQarwk198Ycu2U/TbnClqdjRG38xYrD83xut4er48/RopuFs3jZ06Qdf399fFrUDgAA6sXxkH12vWt6u0cvNhHU/Ll2ejJmrbq79uunOcRrX1Vuy7j+iu2WmSGuq2bz7Sk0bNgV+wR6+Nfk2/pEny6q23Vjyh0TardZpm3fGI3tshSSGavvBl3dqsnE1NpxW78E/9unybtu5LUWpGnlx9/BQYHKLegwdo6g391N7PRnvrqDqx9XuN+McSnSrnMOm/vqmev5b9t0ovPuzTTdeN89f8WSmSzmjL1hNSr3IumAPaicRZL2rCB3GSpCERM/XhBLP2LFqgL37Zot1HUnXK5K5GLYLUa8hg3XrbEHWpsL46uL2vbJ0w5BzhaMR7jlfz4z1ijlKIOUTMcZGIOS5UXWMOO95HQ8pVqTbHpB0fPqc7vj2uAkluHabop++nqF2ZjbFJsf9+Rnf9mCRJqnPlrfp55li1LHorCg7q31dF6IcTkuSjqz74RC8P8Si/3Dmb9fTID7QsW5JLO/1zUYRuZoZEALUIyRiUKyHP56IXb70YKSZPJeT5qJVnVoXbHs05rs3p2y74XbrpjLabzshisah93RCjiul47g0V0EDSCUnm00pJk9Sk5EZmxS/4WPe9sklJ5mK/TkvStuULtW31Fu18/0UNcbPnpkS2tn7+jh75Yr8ySw7SMZuUmZakXWuTtGtttH4ZNk2fvD5cIZep95p3ZI0ipn+pxUdKdNIzTit+R6zid8Rq3uw/Ne2Nx/Vo/wY25yLPT1iv1576QvMOlpgOxZSpvw/s1t8HduvPOYs15JFH9catbW10CCxKi5mrp5+Zr82nzBf+KTNDift3KXH/Li39ealGPPW4Xru2tapUSsZS9Ca7qV6DyztfSMGxlXr8tq+0IfP87/LSkrRzdZJ2rl6rRbc/rs8e66p6l6k8jqtfFh1f+pnuf2GdjhVbjzonKVGxi39TbNQW3fvJc+pv0HmU4tpRw8N99cvcTCl3p1atz9PoYTY+tGlbFLXL+rpTqIaV08fPP75Rr0//XHMPlPgMnUnTke0xOrI9Rr/9uFz3vPmYHgi1bzXqqlYn7NWqVaCkFElSWlqGpJIXzah2Ilub3n9bD81O0Plam6ekuD1aHLdHS+av0xMfPa7bOpd3J8yx7b0RdaLy5whHI94zSG2I94g5zh+bmKMQMcdFI+YoVN1jjorfR8eWq/Jtjoe63XePbop8ST/EW2Tev0Bv/TJEX0z1L7Wl+cACvTGnMBEjr7Z68Pkx5xMxkuTaTpMmttAPM49LytKqxduUOyS03HqY89cGrckufO3Wc4DGkIgBUMuQjEG5Ys9WPLd1QYFZybt3Kmn3Tp1NTZYpJ0defvXl699EgV26yb99J8nGKMbYsw3s6pwfyj4qSeru10VtvYMlSXHZR7Q9Y7fico5Wr855fppSTltfu/jIr4ysQP6++Xrq1WId8zqN1b1/Z3UM8FJuyjFt3rBPP0b8rHqDKx7Fmr1+tv45Y78K+yUu8g3qqL5dmymggZdc87OVGn9Q6zYdV2aBWSdWfa3HP2qhX6Z3NH40YfpWvfrQ51p8whq9W8+xQ0Ad5acna+fGXTqYZpblzEF9M/3f8vnqRd3TsZwRNhk79PpDn2re8YLCn93rqUOfLurS0kfmk6mK27VPu5NypfyTin7/LT3l/Yo+uzawzF3lH1iohx/9TbtzCn9282uhXqFBatm4jkynTurwrj3alZQn5SVrxRtvyavRW3ptmG+Z+7r8TmrtuuOFL11aqXM5kxW3GDhKtzQsKPGv+zRv6WGdveRjZ2r+mwu0IctHIf26qXtrP7meSda29TsVl14gKVu7v/uPItq/rffGX4Z58x1YvwoO/aGnI4rdFKnTSN36dVGnQC/lpiRo0/r9+vLt5WrV0/jTKuSqPsN6y3dulDKVq7WRO5U/rFe5X+gZ0bHaan27OwzvoxZlbrRLbz/0seYmFG7o4huoHj2C1DqwrvJPpShu1z7tSzHJkrZXMx7/t7y/fl53tK8ohKhEnWgUorEThyij+O9SDmjRhhMyS/IM6qYx3cquR+49GldQrorl5J6/EeDlUbpeGNVOWPYs0Mv/S1BB/RYa0K+9WjVw0Zljcdqw4ajSzJIlbZfee/wrtZzzkIbVL/3/Dm3vDakTlT9HOB7xnkFqfLxHzHEOMcc5xBwXj5hDNSLmqOh9dGi5HNXmeLXTw8+PUdQ9S3TMYtLmT7/X0tFPaEzD4hul6Kc3F+iAWZLc1fWee3RzcOnv+w6ThqrTlz9qr0XKXL1Oa3JCNaLMHL1Jfy3fqsJcjKtCx/ZX5T9FAFC9kIxBmU7leyqjwHYQkZd1Vrvn/aL0E4kX/D43I125Gek6eShOAe07qvNVU8rdR0aBh07le6qRe57NY2XmF3bXgrxbnuvrt/Fure0Zu5VtzrbjjKqO9BVrtM4aTCukrbqWGvCSrRUzF+ugtRPm2X6MPvj4Zg1ocr4jbk7brY8f+0LLtlX0+LJJ0XPXKlWS5KaQm57WN9O7quTT3Rm75unh+3/R9iyLEn5ZqGX3dtQEewccXZIC7fx6lhZYA0jPDmP10cc3qW/jYjcbchI174W39fKKVFlyjmjmu5GaPGOUSg+cKdCur7/TXGsixj14qF7/4E6NalWs/prStGHGR3ryq/3KUpbWf/iTlo9+TCNLnWOWlnw6z9rZ8VCHGx7Sf54MVdPiH4X8dMX+8F89+eEOnbaka9H7C3XbsBvVyRGXpTKsi+l+tr3wOtQbNUnXlNkDltqPv1lPjS/xyz0/aWVlboxk71D0oc56atYjuqVTsUp9Nl4//L+39e+16ZKytGrGUu0bP1UdL/U4dnFk/cpT1NcLtNvaRLmHDNd7n0zTkIBin8fUHXr/0Q/0/OzLt0i1e99QDfWN0qJMKSN6i2LMvdSvzHt1uVqzepcK7/O10Igyh6hatPe77/SztQMcEH6bPnhhtDrXL9ZQ5KZozeef6plvD+hsdpz++26kJvx3pEqPnSumMnWi9UD986WBF+5v3Uwt33BC2ZK8Qyfo5WevsHX0SshWTMxR62sXtWxV8iyNaye2LVorn/A79dMrI9Su2Gw/2Yci9exDXyoy2SKl/qWPfrhK4Q+2LjHK0ZHtvUF1otLnCEcj3jNOjY73iDmKIeY4j5jj4hFz1IyYo6L30ZHlcmSbI9Xpeb2evz5G981JkTJj9N7H2zTk+R7nJp08uXCW/ru18Okb946T9OLtLcueVrLFYE3uNUd7Y8xSdqwWRWVrxJgynuzJ26FlRY/FuHfVuFGMvAFQ+5CMQZmOmWw/qmsuyNeueXN05sQJ+TbxV+v+g1SveQt5+dZTbmaGzhxP0NEN69SkYxe7jlVR5zzfUhgAeLicr7JuLoUdU4uluiyQZ9Hprb9r+pubrCOv3NXz6iFqU3Iz815Fr7cGKC5NdfMLN13QMZckt4Zd9NhbYxV79awKjpmqI/FF17aNptxeOkiWJL+uk/TSG75af7xAUh01t/12OECcFi2xPurs0ly3v1gigJSkOs119cv/0NbYtzT/lJQXs1bLU0bp5lKx7SEtWmydi96lhe56826NalXipoVHQ/V76FE9setJvbYhT8qM1ZJ1uRo5puTD06k669tdI4ZL8mivaSU7O5LkXl89p92ve9c8rLe3WKTjsYo+fKM6lXojDXIiVjPeTde58W7mXJ06kawD2/fqYJpZkosahF6vT57rK0PzaSUlnlaHt166sAMsSXWDdMvr0xQ78UOtyJCUsE1/HZuqji2NLIwD65dln6JWF90uaqKpz952wU0RSXJr0k3T37xGW679SXtKDP4tX6IWf/S99lfwLdyo3wTdNbhh6T94XKERg7y1aGm2lL5FkVst6te7jA933k5FbbBOXxAcquFlDiqP08KF1tHNfn319Etj1LnkgEovfw1+9GHdt+VxvbfDotxNa7QsZWQZn8fip1iV6oT9MmJ+0YzV1ptcbm01eGDJi2FcO5Hh0VtvvjpC7UpcMu+QcL327D5NeDxapyUdXrlRhx9srQvfTke29wbViUqfIxyNeM8INSjeI+awAzHHOcQcF42YQ6oJMUfF76Mjy+XIfrQkeanvw3frmtVvaO4JKXn+LM2Y0lWPd3WXMmL13n+2FD795NZKd704We3LfVCzvsZP6q73Y2KVJ5PWLolR5pjBKnklTBs2Kdo6laDngIEaXtXmDQSAy4BkDMqUbLI973PSju2FHfOAprryxlvk5n7+gWMvXz/5d+yiJu07ycWOBUeTTXUk73Sb21SX7rckKXWbvno3S8XHeBSYspR0cK/Wb01WlvVkfLpdp2fLmJNVyX/rcNFMHs17a0yXcj6mzQZqTPdZ2rbF3oK5qPy3w1XBg0cq2N5dVVbqIe1Osb5u3ksjO5UT1dUp7PzNX5AtKV5790qlhkClxmlXsvV1SD+NbV/eSTbQ8PB2em3Dbkn5iotLktS6xDatNfWVxzS1whOorw7t60lb0iWlKvFvqfRdFoOk7df82fvL/puLr3r941G9e38XNbjcw8nr9NDY8NIL90qSfHtqZKibVqwyS0rV8eOSjOwEO7J+JR9XXNHc44GhGtuz7BHkLq0HafwVP2nPdrsLqfVzlmh9BVsFew8t+8aIPDRweHfVWbpBOTqjVZEH9H+9O5Tayrxpi9Za25NW4X3UrqyDnDx0/jPUuav6ltt/bKz+/ZtLO45LOqI9e1T6ehVXlepERQpMykw+rs1//qGPPv9L8dYbXAGTpmhKqRkNjWsnGg4fpIHl3Bv3GTxQYX7Rmp8h6UiCDpqlkHI7xJVs742qE3LkOcIRiPcqoTbEe8QcFSPmOIeYw07EHBeqrjHHRb2PDiyXI9ucInW76ol/hWvtI5FKtpzQ7DeXaMp3Y3VyxiwtOiVJrmp72z26u6PtC1RvZJjC347Vn2el3HXrtPLMYE26INli1l/LY6xT23lo8LjQy5vIB4AqgmQMypRltv1Fm7xrhySpzaChF3TMi7OnY27PsaRi64Na/Za0yObPJU0JLDk/goHS47RwdpyNDVzVpN8UvfPmRLUr69Qzs3Ru3ckWATb6Cn5qFughyVTuFlKA2oV4SQdyJR3Ujx+u1cBnBimonL7KZXP6rM7djmkZoOblbuiigMCGkrIlmXT6dI6kEjeOiu8rsJGa2jhsoxueVewNl1jmElzdiuq3SXmGP0lkJ0umtsx8Rzfvu07vvDJBXS9ndBsYoJblfqN4KCDQT9JpSbnKNnqmGUfWr4xin8eWgWpV7r4aqnkzd2l7frlbOFqdgX00wGuDVuVKSVEx2ju9Q4kpKSyKid5qLX9jDR9RTlc4LVNFyxp4BzSy2SmqV69o0YN8paeXcb2Kq0p1ori43zSl928VbuZ7xbV676nuts6wQhfbTrRoYWMFU5cmat5UUoYky1mlZ0i6YAp7B7b3RtUJVfYc4WjEe5VQ2+M9Yo5CxBxWxBxlIuaoWHWIORz8PlaqXI5sc4rxG3iznp2wTY//kSbT7t/16Y8FSvmlMEvmGjRGL94bItuTmkqq01OTRvnpz3kZUv4uLV5+RpOmFMvGmHdpRZQ1Y+vdU+OH2n46FwBqKpIxKFOOxXaHOevkSUlS/VbldxMcdSypcE3YajM7hQ1uwX316CPX6trwFipjHddCFsv5kaFeHjaDnvNBd7lH1OAbhqn5n0uUaLEo4Y/PNGXlT2rfvb26tmuptm1bqm2HIHVpFyi/CqMrByowq2itWnm621w81q3YTR5zfhnzMRTfl5ur7LslZFt2wlb9MnuVlm04qCNJmcrMMVed0bqdp+qP768qFngXKCfjlA7FbNT3n/2mxQdz9Hf0j7r/aS/9+OlItbxco1Xd3W1+obi4FhXEYvy1NKp++XjZ7Fy5e7hJsvfGSHe9FP20JlXmRplPDw3v56FVq03S8S1adeAmdWpffINDilpt7a4F9NGIzuXsp9g5Zi98Vz0X2nf4Mq9XcVWpTlyMOo3Vd8pN+tfD/dW65EyGxRjRTri72/o+9FPn4UN0VUdJaqagUps6sL03qk6osucIRyPeM0aNifeIOSpGzGFFzHFJiDlqRsxh5/vokHI5ss25gI/CnrpDY/56X0tPZWnpu3MKf+0SqBufv07d7DgvyU0DJg1SwLwlSpZZm5Zs0Kkpo9SoqAwbNyqycP5O+Q4dqMHkYgDUUiRjUDmXqcd8TcC4y3Ich2g7Rb/NmXLuyXDzztmaNG2REiWZM+uq00AbHXMDeF45VR89n64n3v5LR3Okguw07duwUfs2bDy3jYtPY3UfOlS3/mO8RobU5qjIoqRVX+qB5yJ1OKfirasGV9Xxa6Iu4eP1er9OanbXK/pqv0mZG/+nD5cP1NujnP0YFIzjrbBhXeW2eqvM+ltRUYl6oH2x8XH7tyjaOqV0wPBQXcFK6IXqt9XECe0vmFrI4uKuuvXqKbBNiEL7tFdQPVudZGe1E74acu99GmJji+rf3ld8jnAS4r3SamW8R8xRexFzXBJijpoRc1T6fTSoXI5Wr7f+7/HeWv1CjIoeIPOffLse6WlXJkaS5NpjqCYGLdFX8ZI5dp2WJo/STQGSVKANK2J0RpLko2Hjesj+vQJAzUIyBmWq42KWyVL+KDyfxo2VfiJRpxMS1DikzBmBL+pYNZnbFWN0S4+lemebWUqN1lcLpqjvtWXNx2wUD4VMfki/Dh6nZQvWKnLDXu3cm6i/z5jOjaiyZJ3UtiVztW3lOl39+nN6cdjlLF8VcnSpnvpXpA5b11/0DAjRgJ5Bat7Yq9QTN8mbI7VsfxXL2HiH6P7pYZp/33KdVLZWLdqirFGDxa2RmssvLFS93bZqo1naF7lFiXc3PzeC+dDqWCUUbqVhwzvKnvsi7m16a+qACibgtgpuV01DiCY9dNf0KZe+zFOVbicc397XijpRixHvOU6ti/eIOWodYo5LQMxRM2KOyr6P1UaWtv0Vp+Iz+Z3auU9HTD3Uye6nKltr8qRgffXREangoJYsS9VNtzSRzHu0ouixmPqhGjfgck7LAQBVSzWNamA0HzezMgrK/4L079RV6ScSdXj1SjVo0VJuXqUfpM/NTJerm4c8vG13y3zcanbnXGqsybf103+3rVOG8rXh20XadfUt6nqZp19xbxyicXeEaNwdklSgnFMpij90VNtitmrxr2u09aRZykvSvJe+06DQxzSy1q2mZ9GmHxdop7Wz0yj8bn3zWrhalTNHROy7G6peMkaSR89u6uO1XEtypfz98Tqswerq7EJVZ65uOvdRzcpVjlTuKK58kxPasvq9NaLnV9q4uUDau1mRyRN1c4AkpWp15NHCbRr01vAr7Rui6tE1XE9N72lYcau/6tFOOLK9p07UbMR7jlT74j1iDgcj5sAFiDlweWVEf6dXFxeu4FM/oKFyktOUe/APRczsq+8fCLb75mHrCWHq+ekRxZot2r74Lx2/5So13bJJq9IK/95o5ED15U4kgFrMEcsroAYK8LAdyDXr2VO+/oE6e+qkNn/3pU7s3qHczDOyFBQo69RJHduySVtmfaNdc3+WOd/WgqMVH6smqBs2XlOKpls/vkpfLjtb/sYuLudHk+WabC7XWmCueK7csrmqTqNAdQztoxvuu0df//p/uqGV9agZsVq2wfZ7VmnFO5t5+bK1xqS54Pw5Fs6PbWNf5gLZvCIFZuXlmpSba1KeueSUKycUG1u0HGKwpk0vv7NTpbn5ql7R/bCzObJR02ouR9avej7yLXp9LMk66rMsaUr8+/ItpHuen4YN61DYZljiFBlprcOpWxS1t/BlvbA+6m3rZmCx65WXa7L9Gar1qmM7cQntPXWi1iDec6xaF+8RcxBzSMQchiHmQBkc2eYUl7FNb7++RiclyT1E93zyiKY0lySz9n3zhb7afxEJYP9BmtTfOtBjz3otP27RtsgYFeZi6mvM2C5iWUAAtRnJGJSppUe2zb+7urjpimuuk29AU+VknNG+JQu1fsYnWv3BW9r0zQzFRS5XXnaWfAMD5epq+6u2omPVCK7BuummTtagI0eR3yzVofKmX6/rc36O8ePJOlbuTjP0d5KDkiZ+XXTjxNbWH/KVmHjaMfstT4O65+fcPZasxHI3tCg5yTqERh6qX7+M8YHF95V8Skk2Dnvy5zfUb+Cd6j/wTt0442iJv2bqdNGh3PzVPNDWCVh0+nSWrQ2cJytFiWesr+vVvWBu41rDkfXLv4XaFd0ZSdqsJbFlf+YsR9dq0a5LLXDl+A8PVdfCOyPaEh2rDEnp0Vu1wyKdm+Pd1g4a+qqB9aX5WJJOGFvcaq4GtBP2tPfUiVqDeM/Balu8R8xBzCFiDuMQc6AMjmxzzsnWmve+1MJkSXJRyC13aGpIB937WD/Vk6T8eM186XcdtDsf46PRk3qpcJWgeEWv2aboNdayBAzQuJ7chgRQu9EKokyN3PPk52q74+flW089b7ld7cJHqX7T5nL38JSbu7u8GzRU067ddOXUW9RuxFi5uJZfzfxcTWrkbms8R80ROGm8Rlsfy7YcWKqvo8sZIRrYVMFF6xsmbtGyPeVEPSf+0rLtFRz0+EZ98MpMvfTKTL0ye59sjUnNzjr/Vy8vzwp2XElN2qhzE+vrxFit2FfOOebu1Mq1RTdvgtW5U1n7aquuRVMLx23Sn3Hl3fVI04rIOOtrD7Vt27TE373lW9QBNidoX7n7kZS2Qb9H55b/9zLUKXZNMzON6yz9vXC1Nlovp1enYAUbdiRjVep6ObJ+uXTU0KFFw35T9b/Xv9ea5Av3Zz65Q+8+M1flfVQNF9BHIztbyxKzVetzcrV2zR6ZJcnnSg3vV8E8AI1D1DXA+vrARi2PL6/uZ2j+U49oxKiHNGLUc/piv2OKbzcP93PTI5hyDX56r1zGthOV4sj2vrrUCVQa8Z7j1aZ4j5hDxBzEHAYi5rgQMf4lA/AAAA0zSURBVIckx7Y5VpnrZ+vV308V/tB8hP51b4jcJTUYeaseH1D4RWXaO18R3ybI3qbHJ2yoRlmzRtsX/Kp11hEHLcYMUDf7ZjIEgBqLZAzK1bNuxaPlXF3c1KJXqK68eZoGPTJdgx/9p/redb86jpmo+i1aV/j/9hyjxvDuqduva2b94awWf71Kf5e1nVtnDe1vfQbd8re+f/lHbTx54QPb5rS9+viZ+YrzqWDhuwYFil8SqXnzIvXbf77S+2tPlxlAZR9apo/nFj1T0lCdOhs9trGdxo+zDu+yHNd3L/9Pm9JKPJSec0ILX/pK861xoWfoII0ocz3HEI0fb02sWBL05bPfKLLk1A2mNG345CP9Z6O1M+XXU2MHlhwd1FzdexSNUT2h71/+URtSSk4Bka/krSv14gNfaKfXxV2jekFNz436OrxirfY4vL+Up4SV3+ix/+y2Pq7uoxHje5Q713hVV7nr5cj65amhd05SZ2vfMf/QCj1yzZOaNv1zvf7WN3rxqZc1afJb+sn1Gr1wvbMWWmqsYcOtt8Byd2nt+u2KttZ170F9NKDCe21tNXGidQne/MOa+co87ThToiNsydX+n2fq48g0nTqVrlNubdUrxKEnUbHARipqQbO27dJOp9zXNbadqBSHtvfVpE7AIYj3HKxWxHvEHOcRcxBzGIWY45yqUCeqDEe2OZLO7tJ7r6yyzi5RX5OfvkG9zk2H11BXP3OtenhJUr52fTFDsw7ZOZGcR3dNHtdIkmTac1iFubNAjR3X1r7/B4AajGWzUK5Wnlny98hTismYpyT8PfLUyrMKPk5tGBd1unGcQr//SptNknn7In0bM0rP9C75MfTWyLvHaubqeYozS3n7l+i+yZt1Zf/Oau/vpbzUY4rZsE/HLL01sd8OLVxl45B1Q3XnDc20+ru/VZB/XHMefVKru3VTr3aN1NDbTQW5mUo+Hq+YTQk6bY2g3TuP1vXdKj6bM3/N1wsv1rPjvP015okpGtSg+O9c1e3OWzVx2XtaeMKi3L2LdO9VG9WjX2d1CPBSfnqKdm3cqf1p1kLVCdY9T4YroKzdy1Vd77hdVy//t+YdL1DewRV64prN6ti3i7q28FH+yVTF7dyrXUlFPWsf9X9kqkb4lt7PwFsmqOMfc7QvX8rZs0j3T16vrqHt1LapryynTykx/rC2HUxXfp2uumV8un74Lb3kTsrl0nOoJrZcru+PSeaDC3TXDQc1rG9rNapTemiQd48RemhkszL2IulErGa8m35+TnFZlJeZpviduxVzKPNcR6j+gJv0UJh3qX/PiFmqzyNTSu/35D4VzTSiA2v13ruHVbJkNsvlYJW7Xo6sX5JbyAS9E3FU9z2/TsfNknJOantktM4NVPYO1j1Pj1DjX+dexBkmavFH32u/Hd/Cbp3D9MT4Vja3aT0sVG0/PqI4ZWvNp7/KlCVJHho0vLsdN8dc1GnaNF2/7C39nFCgjNhfNW1itK7s21Ht/D1lSj+t+F27tfVYtgq7xr4a9vjVKtV0Ga11L4WH/Kz9hyxSwhLdd/0R9e/mr7oXzIfiqh433aNrbYz+qxxj24lKcWh7X03qBByCeM/RalC8R8xRaltiDmKO84g5iDmcwZFtTq42fjhTc61zw9UffpueGOJzwRYuLUfrX3dF66bP4mXOO6z/vrRI4V9PVHCFw7pd1GvSYLX66ffz618FD9C4jpd63gBQc9TarzDYZ2DdFC1Jb6pci2OXWPNyMWtg3TI6Z3aaEjjegaW5jJoM1m1j5mjzwkxJaZr/VbTu7T1MjUps5t7pGv37uWO6/9XNSjJLyk7V1lXR2lq0gUt9hUfcopGbntFCmwd0V/cHn9Tzf7+t15elyKQ8ndgRo0U7yt7aq9VAvfT2BAXZ8ehwzuFtWnC44u2kYLW7r2QyRlL9nnr+k/uU/+SXWhJvkrJTtS0yWttK/rtfO01783H9o6ON5qpedz37yYOyPPWF5h/MlUzp2rf2L+0ruZ17Yw155FG9cW3Zky67tr1K7758XA9ErFVCnqTcU9q1dqMumJbbq5mufvVeTd7/jn6w4+zPcQvRg69fr60P/aydGVLOsT1afGxPmZvWz72y/BsQafs1f7at5/JdFTj4Rr372jA1L+N9zNq3QT/Y/H9Jx7dr9uzSc6LYLJejVfZ6ObJ+yUUtxjygH0N6ada3K7Vi8xElns6XR8PGatezn6beOV5j2ntrxU8Xs5huqtbPWaL1dmzpOa5zhTdGFNxHw9v8orjD0sk46zwAnt00fJCdK736dtXTnzws05Ofa97BXFnOJit2VbJiS27nFajR0x/XS2Mb2rdfh2qp2/81UaseWqADOVLWsb1aeWxviW1cZR5m5I0Rg9uJSnFwe18t6gQchXjPwWpKvEfMYV+5iDmIOQxCzFFyR8QckhzW5mTF/KSXfrV+R9ftpif+2b+Mtb9c1X7aP3Tzohc1K96i3J2/KmJ2b311a7OKp9npGKarOvyuT61fAx3GDRDPxQAAyRhUwNctX0P8UrQyI1AFFsdM7unqYtEQvxT5ul1MJ6Km8NSQW0epzcK5OiwpZ/1Cfb8nTI92LhnKuCl40mOa03Gtvv02UpExR3U8PV91GvsruEtPXXfXBI3r7Ke1m+w4pEczXf3mm+o5YaV+mr9JG3cdU+KpbOXkW+Ti5iFvv3pq2batQsOH6MZreqpV6YGNhvEMHqw3ZnfW1b8v1dyVO7X9QIpOZuTJ1dtXAUFt1GvwQE29ob86Nah4RkWPVv0V8X1HTV60XL8t365te5OUciZXBZ7eati8pbr3DdVV14VpSJCtEyzsAP/Usa/m/BilFRvidCQ5U9kWTzVo1kLd+vfTdbeM0KAWnjp4CfMUe3edrC9/CNbsr5dqybqDik/NVo7ZxvzPdnL19JZfw8Zqd0VXhU8cqWuGNFPdGjAXb2WvlyPrl+Qiv/b99eCr/fVgOVtYLJV/Ly9dC40Y1kxfHD4/GY5Hv1ANqWvjX0pwb9FXL37fXlct/FO/Ltum2P0pOnkmTy7ePvJvGaQe/fpo8vVD1adZBdPlGKjulVP19Tet9eWXy7Qy5qgST+fIZOdsCY5jbDtRKQ5u76tDnYBjEO85Ws2N94g5ykbMQcxhDGKOqlQnqpJKtzk5+/ThS8uVaJEkD/W8/w5NKu+RPY8Q3f/McP35wAolyaRtn83Qj0Nf0C2tK2r83eXp4SLJIqm1xo1pcamnCwA1iovFuZEcnCQqKkqSFOifatf2SSYvRWf4V3rEpJeLWUP8UhTocRkXGASAy2D5/7td//yzQFIj3f7th3riCmeXCKi9klIKV7cNCwtzckmci3gPqJmIOQBUeUfm6bprf1GcJJeuN2nRdxPU1MGHIN4DUB3ZMzQHUKBHrsbWPyF/j0tfvdDfI09j65+gYw6gBspU6rmFl+vKr9SaRABQ9RHvAdUBMQeAqm/PgjWKkyS5qMfY/g5PxABAdcU0ZbCbr1u+Rtf7Wwl5Poo920AZBfY9IuznalLPuqdr2eKtAGoT0+FI/VE05b1Pa3WsYLp1AKiqiPeAqo2YA0CVV7Bfvy86UfjatYPGjW7s3PIAQBVCMgYXrZVnllp5ZulUvqeOmbyVYqqjswXuyi4onNLC29Wsuq758vfIUUuPbDVyv/TRlQBQNaRrzdcLtP5UiV9b8pWZclwxa/bomKnwV82vHq4Bjl0DGwAuO+I9wFmIOQBUb/kbo7U4ufC1W+hAjW7i3PIAQFVCMgaXrJF7XmHH2zvd2UUBAIOd0baFS/TDEdtb+XW/Vm892JEvVwA1BvEecLkRcwCozkyKXrBBhVGDmwaM7acGTi4RAFQlxG4AAFwyV3n5+iowuL0GjR2tadd1VaB9M/oAAABcBGIOANVAZowWRFqnLPXsrrHDWdgKAIpzsVgsFmcXApdfVFSUJCnQP9XJJQEAAHCspJTC+TDCwsKcXBLnIt4DAAA1FfEegOrI1dkFAAAAAAAAAAAAqMlIxgAAAAAAAAAAABiIZAwAAAAAAAAAAICBSMYAAAAAAAAAAAAYiGQMAAAAAAAAAACAgUjGAAAAAAAAAAAAGIhkDAAAAAAAAAAAgIFIxgAAAAAAAAAAABiIZAwAAAAAAAAAAICBSMYAAAAAAAAAAAAYiGQMAAAAAAAAAACAgUjGAAAAAAAAAAAAGIhkDAAAAAAAAAAAgIHcnV0AONcrr/3m7CIAAAA41L333uvsIlQpxHsAAKCmId4DUB3xZAwAAAAAAAAAAICBeDKmlmMkAQAAQM1GvAcAAAAAzseTMQAAAAAAAAAAAAZysVgsFmcXAgAAAAAAAAAAoKbiyRgAAAAAAAAAAAADkYwBAAAAAAAAAAAwEMkYAAAAAAAAAAAAA5GMAQAAAAAAAAAAMBDJGAAAAAAAAAAAAAORjAEAAAAAAAAAADAQyRgAAAAAAAAAAAADkYwBAAAAAAAAAAAwEMkYAAAAAAAAAAAAA5GMAQAAAAAAAAAAMBDJGAAAAAAAAAAAAAP9f00ONeMVVqPOAAAAAElFTkSuQmCC;" vertex="1" parent="1">
          <mxGeometry x="1140" y="444.71" width="495" height="228.58" as="geometry" />
        </mxCell>
        <mxCell id="KZFZthVtkt_ClCDCmQ3N-28" value="（会根据 EventParser 类型启动一些组件，比如 CanalLogPositionManager，CanalHACotroller）" style="text;html=1;strokeColor=none;fillColor=none;align=center;verticalAlign=middle;whiteSpace=wrap;rounded=0;" vertex="1" parent="1">
          <mxGeometry x="820" y="500" width="320" height="21" as="geometry" />
        </mxCell>
      </root>
    </mxGraphModel>
  </diagram>
</mxfile>
